<?xml version="1.0" encoding="utf-8"?>
<svg version="1.1" id="Layer_1"
xmlns="http://www.w3.org/2000/svg"
xmlns:xlink="http://www.w3.org/1999/xlink"
width="515px" height="97px"
xml:space="preserve">
<filter id="filter9" x="-0.549524" y="-0.549524" width="2.28634" height="2.35584" >
<feComponentTransfer in="SourceGraphic">
	<feFuncR type="linear" slope="0"/>
	<feFuncG type="linear" slope="0"/>
	<feFuncB type="linear" slope="0"/>
</feComponentTransfer>
<feGaussianBlur stdDeviation="2 2" />
<feOffset result="1" dx="-3.53558" dy="-3.53549"/>
<feComponentTransfer in="SourceGraphic">
	<feFuncR type="linear" slope="0"/>
	<feFuncG type="linear" slope="0"/>
	<feFuncB type="linear" slope="0"/>
</feComponentTransfer>
<feGaussianBlur stdDeviation="2 2" />
<feOffset result="2" dx="3.53558" dy="3.53549"/>
<feComposite  in="1" in2="2" operator="arithmetic" k2="1" k3="-1"/>
<feComponentTransfer result="3">
	<feFuncR type="linear" Ue="0" intercept="1"/>
	<feFuncG type="linear" Ue="0" intercept="1"/>
	<feFuncB type="linear" Ue="0" intercept="1"/>
	<feFuncA type="linear" xh="0" slope="1"/>
</feComponentTransfer>
<feComposite  in="2" in2="1" operator="arithmetic" k2="1" k3="-1"/>
<feComponentTransfer result="4">
	<feFuncR type="linear" Ue="0" intercept="0.6"/>
	<feFuncG type="linear" Ue="0" intercept="0.6"/>
	<feFuncB type="linear" Ue="0" intercept="0.6"/>
	<feFuncA type="linear" xh="0" slope="1"/>
</feComponentTransfer>
<feComposite result="5"  in="3" in2="4" operator="arithmetic" k2="1" k3="1"/>
<feComposite result="6"  in="5" in2="SourceGraphic" operator="atop"/>
<feComponentTransfer in="6">
	<feFuncR type="linear" slope="0"/>
	<feFuncG type="linear" slope="0"/>
	<feFuncB type="linear" slope="0"/>
</feComponentTransfer>
<feGaussianBlur stdDeviation="0.6 0.6" />
<feOffset dx="-4.01714" dy="12.3638"/>
<feComponentTransfer result="7">
	<feFuncR type="linear" Ue="0" intercept="0.701961"/>
	<feFuncG type="linear" Ue="0" intercept="0.701961"/>
	<feFuncB type="linear" Ue="0" intercept="0.701961"/>
	<feFuncA type="linear" xh="0" slope="0.148438"/>
</feComponentTransfer>
<feComposite result="8"  in="6" in2="7" operator="over"/>
</filter>
<g style="filter:url(#filter9);">
<g id="PathID_1" transform="matrix(2.11582, 0, 0, 2.11582, 909.9, 232.2)" opacity="1">
<path style="fill:#FFFFFF;fill-opacity:1" d="M42.1 -40.3L29.05 -39.15L20.8 -12.95L11.85 -39.4L2.8 -38.9L15.55 0.65L26.05 2.9L42.1 -40.3M44.7 -42.05L45.6 -41.2L28.1 5.8L15.35 3.05L14.5 2.25L14.2 2.2L0.4 -40.6L13.1 -41.25L13.2 -40.85L14 -40.05L20.95 -19.5L27.65 -40.85L44.85 -42.35L44.7 -42.05" />
</g>
<g id="PathID_2" transform="matrix(2.11582, 0, 0, 2.11582, 909.9, 232.2)" opacity="1">
</g>
<g id="PathID_3" transform="matrix(2.11582, 0, 0, 2.11582, 1005.35, 232.2)" opacity="1">
<path style="fill:#FFFFFF;fill-opacity:1" d="M9 -0.25L12.8 -39.95L2.9 -40.55L3.25 1.05L9 -0.25M1.7 3.2L1.45 3.3L1.1 -42.4L14.7 -41.65L14.65 -41.35L15.6 -40.45L11.55 2.1L2.65 4.1L1.7 3.2" />
</g>
<g id="PathID_4" transform="matrix(2.11582, 0, 0, 2.11582, 1005.35, 232.2)" opacity="1">
</g>
<g id="PathID_5" transform="matrix(2.11582, 0, 0, 2.11582, 1039, 232.2)" opacity="1">
<path style="fill:#FFFFFF;fill-opacity:1" d="M31.45 -8.35L10.1 -7.6L9.55 -24.4L31.05 -26.95L31.45 -8.35M43.95 -26.95Q45.15 -41.65 33.05 -42.1L4.85 -39.55L3.8 0.45L33.1 1.1Q43 0.3 43.05 -11.1L43.95 -26.95M2.3 2.2L1.95 2.2L3.1 -41.2L32.95 -43.9Q40.1 -43.6 43.35 -39.15Q46.7 -35.5 46.7 -28.4L46.65 -27.15L46.6 -25.85L45.7 -9.95Q45.55 2.75 34.25 3.75L3.15 3.05L2.3 2.2M12.65 -9.45L29.6 -10.05L29.3 -23.9L12.25 -21.9L12.65 -9.45" />
</g>
<g id="PathID_6" transform="matrix(2.11582, 0, 0, 2.11582, 1039, 232.2)" opacity="1">
</g>
<g id="PathID_7" transform="matrix(2.11582, 0, 0, 2.11582, 1140.55, 232.2)" opacity="1">
<path style="fill:#FFFFFF;fill-opacity:1" d="M9 -0.25L12.8 -39.95L2.9 -40.55L3.25 1.05L9 -0.25M1.7 3.2L1.45 3.3L1.1 -42.4L14.7 -41.65L14.65 -41.35L15.6 -40.45L11.55 2.1L2.65 4.1L1.7 3.2" />
</g>
<g id="PathID_8" transform="matrix(2.11582, 0, 0, 2.11582, 1140.55, 232.2)" opacity="1">
</g>
<g id="PathID_9" transform="matrix(2.11582, 0, 0, 2.11582, 1174.2, 232.2)" opacity="1">
<path style="fill:#FFFFFF;fill-opacity:1" d="M31.45 -8.35L10.1 -7.6L9.55 -24.4L31.05 -26.95L31.45 -8.35M43.95 -26.95Q45.15 -41.65 33.05 -42.1L4.85 -39.55L3.8 0.45L33.1 1.1Q43 0.3 43.05 -11.1L43.95 -26.95M2.3 2.2L1.95 2.2L3.1 -41.2L32.95 -43.9Q40.1 -43.6 43.35 -39.15Q46.7 -35.5 46.7 -28.4L46.65 -27.15L46.6 -25.85L45.7 -9.95Q45.55 2.75 34.25 3.75L3.15 3.05L2.3 2.2M12.65 -9.45L29.6 -10.05L29.3 -23.9L12.25 -21.9L12.65 -9.45" />
</g>
<g id="PathID_10" transform="matrix(2.11582, 0, 0, 2.11582, 1174.2, 232.2)" opacity="1">
</g>
<g id="PathID_11" transform="matrix(2.11582, 0, 0, 2.11582, 1275.75, 232.2)" opacity="1">
<path style="fill:#FFFFFF;fill-opacity:1" d="M29.8 -7.6L8.95 -7.5L9.35 -24.35L28.35 -25.7L29.8 -7.6M41.85 -26.6Q42.6 -39.4 31.65 -40.35L13.75 -40.3Q9.1 -39.75 6.25 -36Q3.45 -32.3 2.7 -27.35L3.55 -11.8Q6 0.8 14.85 0.55L31 1.45Q41 0.4 41 -11.1L41.85 -26.6M8.1 0.35Q3.45 -3 1.75 -11.75L0.9 -27.5Q1.3 -30.3 2.3 -32.65Q3.3 -35 4.85 -37.1Q6.5 -39.3 8.65 -40.55Q10.8 -41.8 13.55 -42.1L31.8 -42.15Q38.4 -41.55 41.3 -37.4Q44.55 -33.85 44.55 -27.2L44.55 -26.35L44.5 -25.45L44.5 -25.4L43.65 -9.95Q43.55 2.9 32.1 4.1L15.8 3.2L15.6 3.2Q11.15 3.2 8.1 0.35M11.65 -9.3L27.9 -9.4L26.7 -22.8L11.95 -21.8L11.65 -9.3" />
</g>
<g id="PathID_12" transform="matrix(2.11582, 0, 0, 2.11582, 1275.75, 232.2)" opacity="1">
</g>
</g>
<g id="PathID_13" transform="matrix(0.267153, -0.458442, -0.458442, -0.267153, 909.6, 10.7)" opacity="1">
<path style="fill:#640CAB;fill-opacity:0.729412" d="M18 17.25Q10.55 24.4 0 24.4Q-10.55 24.4 -18 17.25Q-25.45 10.1 -25.45 0Q-25.45 -10.1 -18 -17.25Q-10.55 -24.4 0 -24.4Q10.55 -24.4 18 -17.25Q25.45 -10.1 25.45 0Q25.45 10.1 18 17.25" />
</g>
<g id="PathID_14" transform="matrix(0.267153, -0.458442, -0.458442, -0.267153, 909.6, 10.7)" opacity="1">
</g>
<g id="PathID_15" transform="matrix(0.267153, -0.458442, -0.458442, -0.267153, 900.7, 24.65)" opacity="1">
<path style="fill:#FFF500;fill-opacity:0.729412" d="M18 17.25Q10.55 24.4 0 24.4Q-10.55 24.4 -18 17.25Q-25.45 10.1 -25.45 0Q-25.45 -10.1 -18 -17.25Q-10.55 -24.4 0 -24.4Q10.55 -24.4 18 -17.25Q25.45 -10.1 25.45 0Q25.45 10.1 18 17.25" />
</g>
<g id="PathID_16" transform="matrix(0.267153, -0.458442, -0.458442, -0.267153, 900.7, 24.65)" opacity="1">
</g>
<g id="PathID_17" transform="matrix(0.267153, -0.458442, -0.458442, -0.267153, 888.85, 16.1)" opacity="1">
<path style="fill:#C10087;fill-opacity:0.729412" d="M18 17.25Q10.55 24.4 0 24.4Q-10.55 24.4 -18 17.25Q-25.45 10.1 -25.45 0Q-25.45 -10.1 -18 -17.25Q-10.55 -24.4 0 -24.4Q10.55 -24.4 18 -17.25Q25.45 -10.1 25.45 0Q25.45 10.1 18 17.25" />
</g>
<g id="PathID_18" transform="matrix(0.267153, -0.458442, -0.458442, -0.267153, 888.85, 16.1)" opacity="1">
</g>
<g id="PathID_19" transform="matrix(0.267153, -0.458442, -0.458442, -0.267153, 898.4, 3.3)" opacity="1">
<path style="fill:#B1F100;fill-opacity:0.729412" d="M18 17.25Q10.55 24.4 0 24.4Q-10.55 24.4 -18 17.25Q-25.45 10.1 -25.45 0Q-25.45 -10.1 -18 -17.25Q-10.55 -24.4 0 -24.4Q10.55 -24.4 18 -17.25Q25.45 -10.1 25.45 0Q25.45 10.1 18 17.25" />
</g>
<g id="PathID_20" transform="matrix(0.267153, -0.458442, -0.458442, -0.267153, 898.4, 3.3)" opacity="1">
</g>
<g id="PathID_21" transform="matrix(2.06714, -0.0129047, 0.00626301, 1.00324, 820.3, 474.95)" opacity="1">
<path style="fill:#8C00FF;fill-opacity:1" d="M8.7 -24.5Q8.85 -22.4 8.85 -20Q8.85 -17.5 8.6 -12.55Q8.35 -7.65 8.35 -5.15Q8.35 -2.85 8.5 -0.8Q8.6 0.75 7.65 1.6Q6.7 2.45 5.35 2.45Q3.3 2.45 2.6 0.7Q1 0 0.85 -1.95Q0.7 -3.3 0.7 -4.95Q0.7 -7.4 1.05 -12.4Q1.45 -17.4 1.45 -19.85Q1.45 -24.75 0.4 -28.5Q-0.25 -31 -0.25 -32.95Q-0.25 -34.4 0.65 -35.2Q1.55 -36.05 2.8 -36.05Q4.9 -36.05 5.65 -34.25Q7.45 -33.45 7.45 -31.4Q7.45 -30.15 8 -28Q8.6 -25.6 8.7 -24.5M4.9 -32.95Q4.9 -35 2.8 -35Q0.75 -35 0.75 -32.95Q0.75 -31.15 1.4 -28.75Q2.4 -24.95 2.4 -19.95Q2.4 -17.45 2.05 -12.45Q1.7 -7.5 1.7 -5.05Q1.7 -3.4 1.85 -1.95Q2 -0.1 3.9 -0.1Q4.75 -0.1 5.35 -0.65Q6 -1.25 5.95 -2.3Q5.8 -4.3 5.8 -6.55Q5.8 -9.1 6.05 -14Q6.3 -18.95 6.3 -21.45Q6.3 -23.8 6.15 -25.95Q6.05 -27.05 5.45 -29.45Q4.9 -31.65 4.9 -32.95" />
</g>
<g id="PathID_22" transform="matrix(2.06714, -0.0129047, 0.00626301, 1.00324, 820.3, 474.95)" opacity="1">
</g>
<g id="PathID_23" transform="matrix(2.06714, -0.0129047, 0.00626301, 1.00324, 842.55, 474.8)" opacity="1">
<path style="fill:#8C00FF;fill-opacity:1" d="M7.7 -6.05Q7.7 -1.55 8.15 0.6L8.25 1.4Q8.25 2.75 7.3 3.55Q6.4 4.35 5.1 4.35Q3.15 4.35 2.45 2.65Q1.05 2.05 0.7 0.5Q0 -2.4 0 -7.6Q0 -10.5 0.55 -15.05Q1.15 -19.65 1.15 -22.5Q1.15 -23.95 2.05 -24.75Q3 -25.6 4.2 -25.6Q6.3 -25.6 7.05 -23.8Q8.85 -23 8.85 -20.95Q8.85 -18.1 8.25 -13.55Q7.7 -9 7.7 -6.05M9 -31Q9 -29.75 8 -28.75Q7.05 -27.75 5.75 -27.75Q3.95 -27.75 3 -29.55Q1.2 -30.5 1.2 -32.35Q1.2 -33.65 2.15 -34.6Q3.15 -35.6 4.45 -35.6Q6.3 -35.6 7.2 -33.8Q9 -32.9 9 -31M5.15 -7.6Q5.15 -10.5 5.7 -15.05Q6.3 -19.6 6.3 -22.5Q6.3 -24.55 4.2 -24.55Q2.15 -24.55 2.15 -22.5Q2.15 -19.6 1.55 -15.05Q1 -10.5 1 -7.6Q1 -2.45 1.65 0.25Q2.05 1.8 3.6 1.8Q4.4 1.8 5.05 1.25Q5.7 0.75 5.7 -0.1L5.65 -0.7Q5.15 -3 5.15 -7.6M4.45 -34.55Q3.55 -34.55 2.85 -33.85Q2.2 -33.2 2.2 -32.35Q2.2 -31.55 2.8 -30.9Q3.45 -30.3 4.25 -30.3Q5.1 -30.3 5.75 -30.95Q6.45 -31.65 6.45 -32.55Q6.45 -33.3 5.8 -33.9Q5.2 -34.55 4.45 -34.55" />
</g>
<g id="PathID_24" transform="matrix(2.06714, -0.0129047, 0.00626301, 1.00324, 842.55, 474.8)" opacity="1">
</g>
<g id="PathID_25" transform="matrix(2.06714, -0.0129047, 0.00626301, 1.00324, 864.6, 474.7)" opacity="1">
<path style="fill:#8C00FF;fill-opacity:1" d="M16.15 -6.8Q16.8 -3.3 17.65 -1.6Q18.5 -1.1 18.85 -0.25Q20.6 0.6 20.6 2.3Q20.6 3.55 19.6 4.45Q18.6 5.4 17.3 5.4Q15.2 5.4 13.4 3.05Q11.75 1.9 10.45 -0.85Q8.8 -4.3 8 -10.4L7.65 -10.2Q7.25 -4.8 7.25 -0.85Q7.25 0.6 6.3 1.4Q5.4 2.2 4.15 2.2Q2.05 2.2 1.35 0.45Q-0.4 -0.35 -0.4 -2.4Q-0.4 -7.45 0.55 -18Q1.55 -28.6 1.55 -33.6Q1.55 -35.05 2.45 -35.85Q3.35 -36.7 4.6 -36.7Q6.7 -36.7 7.4 -34.9Q9.2 -34.1 9.2 -32.05Q9.2 -27.6 8.6 -20.65Q11.75 -22.3 18 -25.85Q18.85 -26.4 19.7 -26.4Q21.55 -26.4 22.45 -24.6Q24.35 -23.7 24.35 -21.6Q24.35 -20.05 22.9 -19.15Q21.5 -18.3 15.1 -14.85Q15.6 -9.9 16.15 -6.8M13.6 -8.15Q13.05 -11.2 12.55 -16.6Q12.5 -16.95 12.8 -17.1Q15.5 -18.5 20.75 -21.5Q21.8 -22.1 21.8 -23.2Q21.8 -24 21.15 -24.65Q20.55 -25.35 19.7 -25.35Q19.15 -25.35 18.6 -24.95Q16.65 -23.75 12.55 -21.6Q8.5 -19.45 6.5 -18.2Q6.2 -18 5.9 -18.15Q5.65 -18.3 5.7 -18.65Q6.65 -28.65 6.65 -33.6Q6.65 -35.65 4.6 -35.65Q2.55 -35.65 2.55 -33.6Q2.55 -28.55 1.55 -18Q0.6 -7.45 0.6 -2.35Q0.6 -0.35 2.65 -0.35Q4.7 -0.35 4.7 -2.35Q4.7 -6.4 5.15 -12.2Q5.15 -12.45 5.55 -12.65L6.3 -13.1Q7.9 -14.3 8.25 -14.3Q8.6 -14.3 8.7 -13.85Q9.55 -5.15 11.4 -1.25Q13.35 2.85 15.8 2.85Q16.75 2.85 17.4 2.25Q18.05 1.65 18.05 0.85Q18.05 -0.35 16.75 -0.9Q14.8 -1.85 13.6 -8.15" />
</g>
<g id="PathID_26" transform="matrix(2.06714, -0.0129047, 0.00626301, 1.00324, 864.6, 474.7)" opacity="1">
</g>
<g id="PathID_27" transform="matrix(2.06714, -0.0129047, 0.00626301, 1.00324, 916, 474.35)" opacity="1">
<path style="fill:#8C00FF;fill-opacity:1" d="M7.4 -8.45Q7.95 -6.65 8.85 -5.35Q9.9 -4.45 11.05 -4.45L12.65 -4.95Q13.3 -5.2 13.8 -5.2Q15.45 -5.2 15.95 -3.5Q17.4 -3 17.4 -1.05Q17.4 0.65 16.2 1.9Q14.8 3.3 12.4 3.3Q8.05 3.3 5.1 -0.65Q2.6 -3.1 1.2 -7.4Q0 -11.05 0 -14.65Q0 -19.25 1.6 -23.1Q3.7 -28.15 7.6 -28.15Q13.35 -28.15 17 -23.25Q21.75 -18.65 21.75 -10.95Q21.75 -9.7 20.9 -8.8Q20.1 -7.9 19 -7.9Q18.6 -7.9 17.9 -8.05Q17.2 -8.2 16.8 -8.2Q16.2 -8.2 15.05 -8.05Q13.9 -7.9 13.2 -7.9Q11.05 -7.9 7.4 -8.45M8.95 -20.5Q7.85 -20.5 7.05 -16.1Q10.15 -15.6 11.8 -15.6L14.55 -15.85Q14.15 -17.55 13.25 -18.85Q11.4 -20.5 8.95 -20.5M11.05 -3.4Q9.05 -3.4 7.3 -5.45Q5.7 -7.4 5 -10.45Q4.9 -10.85 5.05 -11Q5.25 -11.15 5.55 -11.1Q9.8 -10.45 11.8 -10.45Q12.55 -10.45 13.65 -10.6Q14.8 -10.75 15.45 -10.75Q15.9 -10.75 16.55 -10.6Q17.2 -10.45 17.7 -10.45Q18.4 -10.45 18.95 -11.05Q19.5 -11.65 19.5 -12.45Q19.5 -18.55 16.25 -22.75Q12.85 -27.1 7.6 -27.1Q4.3 -27.1 2.4 -22.65Q0.9 -19.05 0.9 -14.65Q0.9 -9.25 3.3 -4.7Q6.2 0.75 11 0.75Q13 0.75 14.15 -0.35Q15.2 -1.35 15.2 -2.6Q15.2 -4.1 13.8 -4.1Q13.3 -4.1 12.4 -3.75Q11.5 -3.4 11.05 -3.4M7.6 -23.05Q11 -23.05 13.55 -20.05Q15.65 -17.6 15.65 -15.6Q15.65 -14.8 15.15 -14.8L13.6 -14.65Q12.55 -14.5 11.8 -14.5Q10.4 -14.5 5.95 -15.2L5.4 -15.15Q4.95 -15.05 4.75 -15.15Q4.45 -15.25 4.55 -15.65Q5.2 -23.05 7.6 -23.05" />
</g>
<g id="PathID_28" transform="matrix(2.06714, -0.0129047, 0.00626301, 1.00324, 916, 474.35)" opacity="1">
</g>
<g id="PathID_29" transform="matrix(2.06714, -0.0129047, 0.00626301, 1.00324, 991.15, 473.9)" opacity="1">
<path style="fill:#8C00FF;fill-opacity:1" d="M19.9 -3.25Q18.7 3.75 15.8 3.75Q13.85 3.75 13 2.25Q10.75 2.8 7.9 2.8Q6.3 2.8 4.6 1.95Q2.9 1.15 1.95 -0.3Q-0.5 -2.05 -0.5 -4.6Q-0.5 -6.35 0.65 -7.65Q1.05 -8.2 3.15 -9.85Q4.3 -10.85 5.3 -11.45Q3.25 -11.45 2.35 -13.35Q0.55 -14.2 0.55 -16.05Q0.55 -17 1.1 -17.8Q3.25 -21.05 4.35 -22.15Q6.6 -24.6 8.9 -24.6Q13.1 -24.6 16.45 -20.55Q20.65 -17.05 20.65 -12.55Q20.65 -7.5 19.9 -3.25M12.15 -16.15Q11.4 -16.65 10.8 -16.8Q9.95 -16.15 9.15 -14.95Q8.4 -13.75 7.6 -12.7Q9.7 -13.55 13 -13.7L13 -14.05Q13 -14.95 12.15 -16.15M15.2 -20.5Q12.25 -23.55 8.9 -23.55Q6.95 -23.55 4.85 -21.2Q3.95 -20.2 2 -17.25Q1.6 -16.65 1.6 -16.05Q1.6 -15.25 2.25 -14.6Q2.9 -14 3.75 -14Q4.75 -14 5.35 -15Q8.4 -19.55 9.2 -19.45Q10.75 -19.25 12.4 -17.45Q14.05 -15.7 14.05 -14.05Q14.05 -12.75 13.5 -12.65Q9.75 -12.5 7.55 -11.55Q5.8 -10.75 2.6 -8.1Q0.5 -6.4 0.5 -4.6Q0.5 -2.65 2.45 -1.15Q4.25 0.2 6.4 0.2Q9.3 0.2 11.6 -0.45Q11.8 -0.5 12.95 0.4Q14.15 1.35 14.8 1.35Q15.75 1.35 16.2 -0.35Q18.15 -8.45 18.15 -14.05Q18.15 -17.45 15.2 -20.5M12.85 -5.4Q10.1 -3.9 6.4 -3.9Q5 -3.9 5 -4.6Q5 -4.85 5.5 -5.25Q7.95 -7.15 8.85 -7.6Q10.5 -8.4 12.95 -8.6Q13.2 -8.6 13.35 -8.4Q13.5 -8.2 13.45 -7.95Q13.1 -5.5 12.85 -5.4" />
</g>
<g id="PathID_30" transform="matrix(2.06714, -0.0129047, 0.00626301, 1.00324, 991.15, 473.9)" opacity="1">
</g>
<g id="PathID_31" transform="matrix(2.06714, -0.0129047, 0.00626301, 1.00324, 1063.05, 473.45)" opacity="1">
<path style="fill:#8C00FF;fill-opacity:1" d="M21.35 -23.5Q23.15 -22.6 23.15 -20.8Q23.15 -20.15 22.75 -19.45L18.8 -10.7Q16.65 -5.6 15.6 -1.55Q15 0.95 13.8 2.5Q12.6 4.1 11.05 4.1Q9.4 4.1 8.65 2.45Q7.05 1.8 6.75 -0.45Q6.05 -5.4 3.95 -11.4Q2.75 -14.65 -0.25 -22Q-0.55 -22.65 -0.55 -23.25Q-0.55 -24.55 0.4 -25.4Q1.4 -26.25 2.65 -26.25Q4.5 -26.25 5.3 -24.5Q6.4 -24.05 6.9 -22.8Q8.3 -19.6 10.85 -13.05L15.7 -23.55Q16.55 -25.35 18.35 -25.35Q20.5 -25.35 21.35 -23.5M16.6 -23.1Q14.45 -18.7 10.7 -10Q10.5 -9.6 10.2 -9.6Q9.85 -9.6 9.7 -10Q8.25 -14.7 4.4 -23.9Q3.85 -25.2 2.6 -25.2Q1.75 -25.2 1.1 -24.6Q0.45 -24.05 0.45 -23.25Q0.45 -22.75 0.65 -22.35Q3.7 -15 4.9 -11.7Q7 -5.6 7.7 -0.55Q8 1.55 9.5 1.55Q10.5 1.55 11.4 0.4Q12.45 -1.05 13.1 -3.35Q14.1 -7.45 16.25 -12.5L20.3 -21.35Q20.55 -21.8 20.55 -22.3Q20.55 -23.15 19.9 -23.7Q19.25 -24.3 18.4 -24.3Q17.2 -24.3 16.6 -23.1" />
</g>
<g id="PathID_32" transform="matrix(2.06714, -0.0129047, 0.00626301, 1.00324, 1063.05, 473.45)" opacity="1">
</g>
<g id="PathID_33" transform="matrix(2.06714, -0.0129047, 0.00626301, 1.00324, 1112.65, 473.15)" opacity="1">
<path style="fill:#8C00FF;fill-opacity:1" d="M7.7 -6.05Q7.7 -1.55 8.15 0.6L8.25 1.4Q8.25 2.75 7.3 3.55Q6.4 4.35 5.1 4.35Q3.15 4.35 2.45 2.65Q1.05 2.05 0.7 0.5Q0 -2.4 0 -7.6Q0 -10.5 0.55 -15.05Q1.15 -19.65 1.15 -22.5Q1.15 -23.95 2.05 -24.75Q3 -25.6 4.2 -25.6Q6.3 -25.6 7.05 -23.8Q8.85 -23 8.85 -20.95Q8.85 -18.1 8.25 -13.55Q7.7 -9 7.7 -6.05M9 -31Q9 -29.75 8 -28.75Q7.05 -27.75 5.75 -27.75Q3.95 -27.75 3 -29.55Q1.2 -30.5 1.2 -32.35Q1.2 -33.65 2.15 -34.6Q3.15 -35.6 4.45 -35.6Q6.3 -35.6 7.2 -33.8Q9 -32.9 9 -31M5.15 -7.6Q5.15 -10.5 5.7 -15.05Q6.3 -19.6 6.3 -22.5Q6.3 -24.55 4.2 -24.55Q2.15 -24.55 2.15 -22.5Q2.15 -19.6 1.55 -15.05Q1 -10.5 1 -7.6Q1 -2.45 1.65 0.25Q2.05 1.8 3.6 1.8Q4.4 1.8 5.05 1.25Q5.7 0.75 5.7 -0.1L5.65 -0.7Q5.15 -3 5.15 -7.6M4.45 -34.55Q3.55 -34.55 2.85 -33.85Q2.2 -33.2 2.2 -32.35Q2.2 -31.55 2.8 -30.9Q3.45 -30.3 4.25 -30.3Q5.1 -30.3 5.75 -30.95Q6.45 -31.65 6.45 -32.55Q6.45 -33.3 5.8 -33.9Q5.2 -34.55 4.45 -34.55" />
</g>
<g id="PathID_34" transform="matrix(2.06714, -0.0129047, 0.00626301, 1.00324, 1112.65, 473.15)" opacity="1">
</g>
<g id="PathID_35" transform="matrix(2.06714, -0.0129047, 0.00626301, 1.00324, 1131.85, 473)" opacity="1">
<path style="fill:#8C00FF;fill-opacity:1" d="M14.65 1.2Q13.35 1.75 11.9 1.75Q10.25 1.75 7.55 0.45Q4.4 -1.05 2.75 -3.15Q-0.2 -5.55 -0.2 -8.3Q-0.2 -13.8 2.75 -18.35Q6.3 -23.85 12.25 -23.85Q13.2 -23.85 14 -23.5Q14 -29.7 14.4 -31.9Q15.45 -37.85 19.1 -36.6Q20.4 -36.05 20.9 -34.9Q22.7 -34.05 22.7 -32.2Q22.7 -31.65 22.5 -31.1Q21.9 -29.5 21.35 -17.4Q20.9 -7.45 20.9 -4.2Q20.9 -2.2 21.15 -0.15Q21.3 1.45 20.35 2.35Q19.4 3.25 18 3.25Q15.95 3.25 15.25 1.45L14.65 1.2M12.85 -16.1Q10.7 -15.55 9.15 -13.05Q7.6 -10.6 7.45 -7.3Q9.4 -5.95 10.35 -5.95Q11.1 -5.95 13.25 -7.75Q13.3 -9.9 13.6 -13.85Q13.2 -15.3 12.85 -16.1M10.35 -0.8Q12 -0.8 13.7 -1.75L14 -1.85Q14.15 -1.85 14.7 -0.5Q15.3 0.85 16.75 0.7Q18.75 0.45 18.55 -1.6Q18.35 -3.7 18.35 -5.75Q18.35 -9.05 18.8 -19Q19.4 -31.25 20 -33Q20.1 -33.35 20.1 -33.75Q20.1 -34.6 19.45 -35.15Q18.8 -35.7 18 -35.7Q16.6 -35.7 16.1 -34.35Q15.3 -32 15.1 -28.55L15.05 -22.65Q15.05 -21.8 14.25 -22.25Q13.3 -22.8 12.25 -22.8Q6.9 -22.8 3.55 -17.75Q0.8 -13.5 0.8 -8.3Q0.8 -5.5 4.65 -3Q8.05 -0.8 10.35 -0.8M4.95 -8.3Q4.95 -12.35 6.95 -15.45Q9 -18.55 12 -18.75Q13.2 -18.8 14.55 -14L14.55 -13.85Q14.3 -9.75 14.25 -7.5Q14.25 -7.05 12.65 -5.95Q11.1 -4.9 10.4 -4.9Q8.25 -4.9 5.25 -7.8Q5 -8.05 4.95 -8.3" />
</g>
<g id="PathID_36" transform="matrix(2.06714, -0.0129047, 0.00626301, 1.00324, 1131.85, 473)" opacity="1">
</g>
<g id="PathID_37" transform="matrix(2.06714, -0.0129047, 0.00626301, 1.00324, 1181.7, 472.7)" opacity="1">
<path style="fill:#8C00FF;fill-opacity:1" d="M7.7 -6.05Q7.7 -1.55 8.15 0.6L8.25 1.4Q8.25 2.75 7.3 3.55Q6.4 4.35 5.1 4.35Q3.15 4.35 2.45 2.65Q1.05 2.05 0.7 0.5Q0 -2.4 0 -7.6Q0 -10.5 0.55 -15.05Q1.15 -19.65 1.15 -22.5Q1.15 -23.95 2.05 -24.75Q3 -25.6 4.2 -25.6Q6.3 -25.6 7.05 -23.8Q8.85 -23 8.85 -20.95Q8.85 -18.1 8.25 -13.55Q7.7 -9 7.7 -6.05M9 -31Q9 -29.75 8 -28.75Q7.05 -27.75 5.75 -27.75Q3.95 -27.75 3 -29.55Q1.2 -30.5 1.2 -32.35Q1.2 -33.65 2.15 -34.6Q3.15 -35.6 4.45 -35.6Q6.3 -35.6 7.2 -33.8Q9 -32.9 9 -31M5.15 -7.6Q5.15 -10.5 5.7 -15.05Q6.3 -19.6 6.3 -22.5Q6.3 -24.55 4.2 -24.55Q2.15 -24.55 2.15 -22.5Q2.15 -19.6 1.55 -15.05Q1 -10.5 1 -7.6Q1 -2.45 1.65 0.25Q2.05 1.8 3.6 1.8Q4.4 1.8 5.05 1.25Q5.7 0.75 5.7 -0.1L5.65 -0.7Q5.15 -3 5.15 -7.6M4.45 -34.55Q3.55 -34.55 2.85 -33.85Q2.2 -33.2 2.2 -32.35Q2.2 -31.55 2.8 -30.9Q3.45 -30.3 4.25 -30.3Q5.1 -30.3 5.75 -30.95Q6.45 -31.65 6.45 -32.55Q6.45 -33.3 5.8 -33.9Q5.2 -34.55 4.45 -34.55" />
</g>
<g id="PathID_38" transform="matrix(2.06714, -0.0129047, 0.00626301, 1.00324, 1181.7, 472.7)" opacity="1">
</g>
<g id="PathID_39" transform="matrix(2.06714, -0.0129047, 0.00626301, 1.00324, 1200.85, 472.6)" opacity="1">
<path style="fill:#8C00FF;fill-opacity:1" d="M14.65 1.2Q13.35 1.75 11.9 1.75Q10.25 1.75 7.55 0.45Q4.4 -1.05 2.75 -3.15Q-0.2 -5.55 -0.2 -8.3Q-0.2 -13.8 2.75 -18.35Q6.3 -23.85 12.25 -23.85Q13.2 -23.85 14 -23.5Q14 -29.7 14.4 -31.9Q15.45 -37.85 19.1 -36.6Q20.4 -36.05 20.9 -34.9Q22.7 -34.05 22.7 -32.2Q22.7 -31.65 22.5 -31.1Q21.9 -29.5 21.35 -17.4Q20.9 -7.45 20.9 -4.2Q20.9 -2.2 21.15 -0.15Q21.3 1.45 20.35 2.35Q19.4 3.25 18 3.25Q15.95 3.25 15.25 1.45L14.65 1.2M12.85 -16.1Q10.7 -15.55 9.15 -13.05Q7.6 -10.6 7.45 -7.3Q9.4 -5.95 10.35 -5.95Q11.1 -5.95 13.25 -7.75Q13.3 -9.9 13.6 -13.85Q13.2 -15.3 12.85 -16.1M10.35 -0.8Q12 -0.8 13.7 -1.75L14 -1.85Q14.15 -1.85 14.7 -0.5Q15.3 0.85 16.75 0.7Q18.75 0.45 18.55 -1.6Q18.35 -3.7 18.35 -5.75Q18.35 -9.05 18.8 -19Q19.4 -31.25 20 -33Q20.1 -33.35 20.1 -33.75Q20.1 -34.6 19.45 -35.15Q18.8 -35.7 18 -35.7Q16.6 -35.7 16.1 -34.35Q15.3 -32 15.1 -28.55L15.05 -22.65Q15.05 -21.8 14.25 -22.25Q13.3 -22.8 12.25 -22.8Q6.9 -22.8 3.55 -17.75Q0.8 -13.5 0.8 -8.3Q0.8 -5.5 4.65 -3Q8.05 -0.8 10.35 -0.8M4.95 -8.3Q4.95 -12.35 6.95 -15.45Q9 -18.55 12 -18.75Q13.2 -18.8 14.55 -14L14.55 -13.85Q14.3 -9.75 14.25 -7.5Q14.25 -7.05 12.65 -5.95Q11.1 -4.9 10.4 -4.9Q8.25 -4.9 5.25 -7.8Q5 -8.05 4.95 -8.3" />
</g>
<g id="PathID_40" transform="matrix(2.06714, -0.0129047, 0.00626301, 1.00324, 1200.85, 472.6)" opacity="1">
</g>
<g id="PathID_41" transform="matrix(2.06714, -0.0129047, 0.00626301, 1.00324, 1250.7, 472.25)" opacity="1">
<path style="fill:#8C00FF;fill-opacity:1" d="M22.25 -11.1Q22.25 -6.25 19.4 -2.1Q16.05 2.75 10.55 2.75Q6.3 2.75 3.45 -0.65Q1.55 -2.25 0.45 -4.65Q-0.6 -7.05 -0.6 -9.45Q-0.6 -25.6 7.7 -25.6Q12.65 -25.6 15.05 -23.1Q17 -22.15 18.35 -20.5Q22.25 -17.45 22.25 -11.1M9.2 -17.95Q7.9 -17.95 7.35 -13.3Q7.05 -10.75 7.05 -7.95Q7.05 -6.45 7.75 -5.3Q8.35 -4.95 9 -4.95Q11.15 -4.95 12.85 -7.2Q14.6 -9.5 14.6 -12.65Q14.6 -14.35 14.15 -15.55Q13.3 -15.75 12.65 -16.5L12.5 -16.5Q11.2 -16.85 10.55 -17.8Q9.8 -17.95 9.2 -17.95M19.7 -12.6Q19.7 -19.7 14.55 -22.2L14.4 -22.35Q12.3 -24.55 7.65 -24.55Q0.4 -24.55 0.4 -9.45Q0.4 -5.8 2.65 -2.95Q5.15 0.2 9 0.2Q13.95 0.2 17 -4.2Q19.7 -8 19.7 -12.6M7.65 -20.5Q9.45 -20.5 9.8 -20Q10.45 -19.3 11.55 -19L12.15 -18.45Q12.7 -17.95 13.4 -18.05L13.8 -17.85Q15.6 -16.3 15.6 -12.65Q15.6 -9.2 13.65 -6.55Q11.7 -3.9 9 -3.9Q7.2 -3.9 5.85 -5.55Q4.5 -7.2 4.5 -9.45Q4.5 -20.5 7.65 -20.5" />
</g>
<g id="PathID_42" transform="matrix(2.06714, -0.0129047, 0.00626301, 1.00324, 1250.7, 472.25)" opacity="1">
</g>
<g id="PathID_43" transform="matrix(2.06714, -0.0129047, 0.00626301, 1.00324, 1299.4, 471.95)" opacity="1">
<path style="fill:#8C00FF;fill-opacity:1" d="M7.75 -31.75Q9.2 -31.15 9.5 -29.45Q9.9 -27.05 9.95 -24.25Q13.35 -24.45 14.1 -22.5Q15.6 -21.95 15.85 -20.05Q16.05 -17.65 13.7 -16.9Q12.85 -16.6 9.55 -16.4Q9.2 -12 9.2 -9.7Q9.2 -5.8 9.45 -4.5Q10.6 -5.1 11.25 -8.75L11.8 -13.2Q12.1 -15.9 14.75 -15.9Q16.95 -15.9 17.7 -14.05Q19.7 -13.15 19.4 -10.85Q18.5 -3.95 17.6 -1.7Q15.55 3.3 10.55 3.3Q6.9 3.3 5.05 0.7Q2.8 -0.85 2.05 -4.6Q1.55 -7 1.55 -11.25Q1.55 -13.45 1.85 -17.3L1.4 -18Q-0.35 -18.7 -0.35 -20.85Q-0.35 -23.6 2.3 -23.9Q2.35 -25.05 2.1 -27.3Q1.85 -29.55 1.85 -30.55Q1.85 -31.9 2.8 -32.7Q3.75 -33.55 4.95 -33.55Q6.95 -33.55 7.75 -31.75M7.55 -18.95Q9.55 -19.05 11.4 -19.25Q13.3 -19.45 13.3 -21.25Q13.3 -22.15 12.65 -22.75Q12.05 -23.4 11 -23.3L7.95 -23.05Q7.7 -23.05 7.55 -23.2Q7.4 -23.35 7.4 -23.6Q7.55 -27.7 6.95 -30.8Q6.7 -32.5 5.05 -32.5Q4.05 -32.5 3.4 -31.8Q2.75 -31.15 3 -30.05Q3.45 -27.2 3.3 -23.35Q3.25 -22.85 2.65 -22.85Q0.65 -22.8 0.65 -20.75Q0.65 -18.9 2.5 -18.75Q3.05 -18.7 3 -18.2Q2.55 -13.45 2.55 -11.2Q2.55 -5.95 3.35 -3.55Q4.75 0.75 9 0.75Q13.45 0.75 15.3 -4.05Q16 -5.95 16.9 -12.5Q17 -13.55 16.35 -14.2Q15.7 -14.85 14.8 -14.85Q13.05 -14.85 12.8 -13.05L12.05 -7.5Q11.1 -3.35 9 -3.35Q7.2 -3.35 6.8 -6.75Q6.65 -7.7 6.65 -11.25Q6.65 -13.6 7.1 -18.45Q7.1 -18.9 7.55 -18.95" />
</g>
<g id="PathID_44" transform="matrix(2.06714, -0.0129047, 0.00626301, 1.00324, 1299.4, 471.95)" opacity="1">
</g>
<g id="PathID_45" transform="matrix(2.06714, -0.0129047, 0.00626301, 1.00324, 1341.75, 471.7)" opacity="1">
<path style="fill:#8C00FF;fill-opacity:1" d="M7.7 -6.05Q7.7 -1.55 8.15 0.6L8.25 1.4Q8.25 2.75 7.3 3.55Q6.4 4.35 5.1 4.35Q3.15 4.35 2.45 2.65Q1.05 2.05 0.7 0.5Q0 -2.4 0 -7.6Q0 -10.5 0.55 -15.05Q1.15 -19.65 1.15 -22.5Q1.15 -23.95 2.05 -24.75Q3 -25.6 4.2 -25.6Q6.3 -25.6 7.05 -23.8Q8.85 -23 8.85 -20.95Q8.85 -18.1 8.25 -13.55Q7.7 -9 7.7 -6.05M9 -31Q9 -29.75 8 -28.75Q7.05 -27.75 5.75 -27.75Q3.95 -27.75 3 -29.55Q1.2 -30.5 1.2 -32.35Q1.2 -33.65 2.15 -34.6Q3.15 -35.6 4.45 -35.6Q6.3 -35.6 7.2 -33.8Q9 -32.9 9 -31M5.15 -7.6Q5.15 -10.5 5.7 -15.05Q6.3 -19.6 6.3 -22.5Q6.3 -24.55 4.2 -24.55Q2.15 -24.55 2.15 -22.5Q2.15 -19.6 1.55 -15.05Q1 -10.5 1 -7.6Q1 -2.45 1.65 0.25Q2.05 1.8 3.6 1.8Q4.4 1.8 5.05 1.25Q5.7 0.75 5.7 -0.1L5.65 -0.7Q5.15 -3 5.15 -7.6M4.45 -34.55Q3.55 -34.55 2.85 -33.85Q2.2 -33.2 2.2 -32.35Q2.2 -31.55 2.8 -30.9Q3.45 -30.3 4.25 -30.3Q5.1 -30.3 5.75 -30.95Q6.45 -31.65 6.45 -32.55Q6.45 -33.3 5.8 -33.9Q5.2 -34.55 4.45 -34.55" />
</g>
<g id="PathID_46" transform="matrix(2.06714, -0.0129047, 0.00626301, 1.00324, 1341.75, 471.7)" opacity="1">
</g>
<g id="PathID_47" transform="matrix(2.06714, -0.0129047, 0.00626301, 1.00324, 1363.8, 471.55)" opacity="1">
<path style="fill:#8C00FF;fill-opacity:1" d="M19.9 -3.25Q18.7 3.75 15.8 3.75Q13.85 3.75 13 2.25Q10.75 2.8 7.9 2.8Q6.3 2.8 4.6 1.95Q2.9 1.15 1.95 -0.3Q-0.5 -2.05 -0.5 -4.6Q-0.5 -6.35 0.65 -7.65Q1.05 -8.2 3.15 -9.85Q4.3 -10.85 5.3 -11.45Q3.25 -11.45 2.35 -13.35Q0.55 -14.2 0.55 -16.05Q0.55 -17 1.1 -17.8Q3.25 -21.05 4.35 -22.15Q6.6 -24.6 8.9 -24.6Q13.1 -24.6 16.45 -20.55Q20.65 -17.05 20.65 -12.55Q20.65 -7.5 19.9 -3.25M12.15 -16.15Q11.4 -16.65 10.8 -16.8Q9.95 -16.15 9.15 -14.95Q8.4 -13.75 7.6 -12.7Q9.7 -13.55 13 -13.7L13 -14.05Q13 -14.95 12.15 -16.15M15.2 -20.5Q12.25 -23.55 8.9 -23.55Q6.95 -23.55 4.85 -21.2Q3.95 -20.2 2 -17.25Q1.6 -16.65 1.6 -16.05Q1.6 -15.25 2.25 -14.6Q2.9 -14 3.75 -14Q4.75 -14 5.35 -15Q8.4 -19.55 9.2 -19.45Q10.75 -19.25 12.4 -17.45Q14.05 -15.7 14.05 -14.05Q14.05 -12.75 13.5 -12.65Q9.75 -12.5 7.55 -11.55Q5.8 -10.75 2.6 -8.1Q0.5 -6.4 0.5 -4.6Q0.5 -2.65 2.45 -1.15Q4.25 0.2 6.4 0.2Q9.3 0.2 11.6 -0.45Q11.8 -0.5 12.95 0.4Q14.15 1.35 14.8 1.35Q15.75 1.35 16.2 -0.35Q18.15 -8.45 18.15 -14.05Q18.15 -17.45 15.2 -20.5M12.85 -5.4Q10.1 -3.9 6.4 -3.9Q5 -3.9 5 -4.6Q5 -4.85 5.5 -5.25Q7.95 -7.15 8.85 -7.6Q10.5 -8.4 12.95 -8.6Q13.2 -8.6 13.35 -8.4Q13.5 -8.2 13.45 -7.95Q13.1 -5.5 12.85 -5.4" />
</g>
<g id="PathID_48" transform="matrix(2.06714, -0.0129047, 0.00626301, 1.00324, 1363.8, 471.55)" opacity="1">
</g>
<g id="PathID_49" transform="matrix(2.06714, -0.0129047, 0.00626301, 1.00324, 1409.45, 471.3)" opacity="1">
<path style="fill:#8C00FF;fill-opacity:1" d="M17.1 -21.7Q21.5 -17.85 21.5 -12.5Q21.5 -11.15 21.15 -8.45Q20.8 -5.8 20.8 -4.45Q20.8 -2.55 21.35 -0.95Q21.5 -0.45 21.5 0Q21.5 1.35 20.5 2.15Q19.55 2.95 18.25 2.95Q16.35 2.95 15.55 1.25Q14.25 0.7 13.8 -0.75Q13.4 -2.25 13.4 -4.5L13.55 -8.05Q13.75 -10.5 13.75 -11.65Q13.75 -15.65 12.35 -17.6Q11.65 -17.55 7.7 -15Q7.95 -10.65 8.25 -0.15Q8.3 1.3 7.35 2.1Q6.45 2.95 5.15 2.95Q3.05 2.95 2.35 1.2Q0.65 0.45 0.6 -1.6Q0.4 -9.45 0.25 -12.15Q0 -18.15 -0.55 -22.45Q-0.75 -24.05 0.2 -25Q1.15 -25.95 2.55 -25.95Q4.6 -25.95 5.3 -24.15Q5.75 -24 6.05 -23.75Q8.7 -25.3 11.05 -25.3Q13.9 -25.3 16.9 -21.85L17.1 -21.7M11.05 -24.25Q8.7 -24.25 5.4 -22.1L5.05 -22Q4.75 -22 4.55 -22.8Q4.3 -23.9 4 -24.3Q3.4 -25.05 2.25 -24.9Q0.2 -24.65 0.45 -22.6Q1.25 -16.55 1.6 -1.6Q1.65 0.4 3.65 0.4Q5.75 0.4 5.7 -1.7L5.15 -16.75Q5.1 -17.05 5.35 -17.2L8.15 -19Q9.9 -20.15 11.05 -20.15Q11.3 -20.15 11.5 -19.95L11.55 -19.9L11.6 -19.85Q13.8 -17.3 14.3 -15.75Q14.85 -14.2 14.75 -10.75L14.55 -7.85Q14.4 -5.95 14.4 -4.8Q14.4 -2.55 14.8 -1.05Q15.25 0.4 16.75 0.4Q17.55 0.4 18.2 -0.1Q18.85 -0.65 18.85 -1.5Q18.85 -1.9 18.75 -2.2Q18.25 -3.8 18.25 -5.8Q18.25 -7.2 18.55 -9.85Q18.9 -12.5 18.9 -13.8Q18.9 -18.15 16.1 -21.2Q13.35 -24.25 11.05 -24.25" />
</g>
<g id="PathID_50" transform="matrix(2.06714, -0.0129047, 0.00626301, 1.00324, 1409.45, 471.3)" opacity="1">
</g>
<g id="PathID_51" transform="matrix(1, 0, 0, 1, 1434, 426.5)" opacity="1">
<path style="fill:#8C00FF;fill-opacity:0.168627" d="M140.9 10Q140.9 14.1 138 17Q135.1 19.9 131 19.9L-131 19.9Q-135.1 19.9 -138 17Q-140.9 14.1 -140.9 10L-140.9 -10Q-140.9 -14.1 -138 -17Q-135.1 -19.9 -131 -19.9L131 -19.9Q135.1 -19.9 138 -17Q140.9 -14.1 140.9 -10L140.9 10" />
</g>
<g id="PathID_52" transform="matrix(1, 0, 0, 1, 1434, 426.5)" opacity="1">
<path style="fill:none;stroke-width:1;stroke-linecap:round;stroke-linejoin:round;stroke-miterlimit:3;stroke:#000000;stroke-opacity:1" d="M140.9 10Q140.9 14.1 138 17Q135.1 19.9 131 19.9L-131 19.9Q-135.1 19.9 -138 17Q-140.9 14.1 -140.9 10L-140.9 -10Q-140.9 -14.1 -138 -17Q-135.1 -19.9 -131 -19.9L131 -19.9Q135.1 -19.9 138 -17Q140.9 -14.1 140.9 -10L140.9 10z" />
</g>
<g id="PathID_53" transform="matrix(1, 0, 0, 1, 1433, 478.5)" opacity="1">
<path style="fill:#8C00FF;fill-opacity:1" d="M140.9 10Q140.9 14.1 138 17Q135.1 19.9 131 19.9L-131 19.9Q-135.1 19.9 -138 17Q-140.9 14.1 -140.9 10L-140.9 -10Q-140.9 -14.1 -138 -17Q-135.1 -19.9 -131 -19.9L131 -19.9Q135.1 -19.9 138 -17Q140.9 -14.1 140.9 -10L140.9 10" />
</g>
<g id="PathID_54" transform="matrix(1, 0, 0, 1, 1433, 478.5)" opacity="1">
</g>
<g id="PathID_55" transform="matrix(0.368961, 0, 0, 0.927312, 1988.1, 630.85)" opacity="1">
<path style="fill:#8C00FF;fill-opacity:0.168627" d="M140.9 10Q140.9 14.1 138 17Q135.1 19.9 131 19.9L-131 19.9Q-135.1 19.9 -138 17Q-140.9 14.1 -140.9 10L-140.9 -10Q-140.9 -14.1 -138 -17Q-135.1 -19.9 -131 -19.9L131 -19.9Q135.1 -19.9 138 -17Q140.9 -14.1 140.9 -10L140.9 10" />
</g>
<g id="PathID_56" transform="matrix(0.368961, 0, 0, 0.927312, 1988.1, 630.85)" opacity="1">
<path style="fill:none;stroke-width:1;stroke-linecap:round;stroke-linejoin:round;stroke-miterlimit:3;stroke:#000000;stroke-opacity:1" d="M140.8 10Q140.8 14.1 137.95 17Q134.95 19.9 130.9 19.9L-131 19.9Q-135.05 19.9 -138.05 17Q-140.9 14.1 -140.9 10L-140.9 -9.95Q-140.9 -14.05 -138.05 -16.95Q-135.05 -19.9 -131 -19.9L130.9 -19.9Q134.95 -19.9 137.95 -16.95Q140.8 -14.05 140.8 -9.95L140.8 10z" />
</g>
<g id="PathID_57" transform="matrix(0.713555, 0, 0, 0.713555, 1293.45, 687)" opacity="1">
<path style="fill:#8C00FF;fill-opacity:1" d="M7.5 -7.1Q7.5 -5.7 8.25 -4.95Q9 -4.25 10.45 -4.25Q11.9 -4.25 12.6 -4.95Q13.35 -5.7 13.35 -7.2L13.35 -25.95L18.1 -25.95L18.1 0L13.35 0L13.35 -3.4Q13.6 -3.65 13.7 -4L13.35 -7.2L13.35 -3.4Q12.8 -1.65 11.7 -0.7Q10.45 0.4 8.55 0.4Q5.65 0.4 4.2 -1.45Q2.75 -3.3 2.75 -6.9L2.75 -25.95L7.5 -25.95L7.5 -7.1" />
</g>
<g id="PathID_58" transform="matrix(0.713555, 0, 0, 0.713555, 1293.45, 687)" opacity="1">
</g>
<g id="PathID_59" transform="matrix(0.713555, 0, 0, 0.713555, 1309.85, 687)" opacity="1">
<path style="fill:#8C00FF;fill-opacity:1" d="M9.35 0.4Q6.9 0.4 5.15 -0.55Q3.4 -1.5 2.45 -3.25Q1.5 -5 1.5 -7.4L1.5 -7.6L6.2 -7.6L6.2 -7.4Q6.2 -5.7 7 -4.75Q7.85 -3.85 9.35 -3.85Q10.8 -3.85 11.65 -4.75Q12.5 -5.65 12.5 -7.2Q12.5 -8.25 12 -8.9Q11.5 -9.6 10.75 -9.95Q10 -10.35 8.65 -10.85L8.45 -10.9L8.25 -11L8.1 -11L8 -11.1Q6.15 -11.8 4.85 -12.6Q3.55 -13.4 2.65 -14.9Q1.8 -16.4 1.8 -18.75Q1.8 -21.1 2.7 -22.8Q3.6 -24.55 5.25 -25.45Q6.9 -26.4 9.15 -26.4Q11.4 -26.4 13.05 -25.5Q14.7 -24.65 15.55 -23Q16.45 -21.35 16.45 -19.1L16.45 -18.95L11.75 -18.95L11.75 -19.15Q11.75 -20.6 11.05 -21.35Q10.4 -22.15 9.15 -22.15Q7.9 -22.15 7.2 -21.25Q6.5 -20.4 6.5 -18.85Q6.5 -17.75 6.95 -17.05Q7.45 -16.4 8.2 -16Q9 -15.6 10.2 -15.2L10.3 -15.15L10.45 -15.15L10.5 -15.1L10.6 -15.1Q12.7 -14.4 14 -13.7Q15.3 -13 16.25 -11.45Q17.2 -9.9 17.2 -7.2Q17.2 -4.85 16.25 -3.15Q15.3 -1.45 13.5 -0.5Q11.75 0.4 9.35 0.4" />
</g>
<g id="PathID_60" transform="matrix(0.713555, 0, 0, 0.713555, 1309.85, 687)" opacity="1">
</g>
<g id="PathID_61" transform="matrix(0.713555, 0, 0, 0.713555, 1324.45, 687)" opacity="1">
<path style="fill:#8C00FF;fill-opacity:1" d="M6.8 -15.05L13.15 -15.05L13.15 -17.85Q13.15 -19.9 12.3 -21Q11.5 -22.1 9.95 -22.1Q8.45 -22.1 7.6 -20.9Q6.8 -19.75 6.8 -17.55L6.8 -15.05L5.55 -15.05L5.55 -11.1L6.8 -11.1L6.8 -8.1Q6.8 -6.2 7.65 -5.1Q8.55 -4.05 10.15 -4.05Q11.6 -4.05 12.4 -4.85Q13.25 -5.65 13.25 -7.1L13.25 -7.25L17.8 -7.25L17.8 -7.1Q17.8 -3.5 15.8 -1.55Q13.8 0.4 10.15 0.4Q7.65 0.4 5.85 -0.6Q4.1 -1.65 3.15 -3.55Q2.25 -5.5 2.25 -8.2L2.25 -17.3Q2.25 -20.15 3.15 -22.2Q4.05 -24.25 5.75 -25.3Q7.5 -26.4 9.95 -26.4Q12.4 -26.4 14.15 -25.4Q15.9 -24.4 16.8 -22.5Q17.7 -20.65 17.7 -17.95L17.7 -11.1L6.8 -11.1L6.8 -15.05" />
</g>
<g id="PathID_62" transform="matrix(0.713555, 0, 0, 0.713555, 1324.45, 687)" opacity="1">
</g>
<g id="PathID_63" transform="matrix(0.713555, 0, 0, 0.713555, 1340.2, 687)" opacity="1">
<path style="fill:#8C00FF;fill-opacity:1" d="M6.95 -21.4L7.5 -16.35L7.5 0L2.75 0L2.75 -25.95L7.5 -25.95L7.5 -22Q7.15 -21.75 6.95 -21.4M14.6 -21.65L14.2 -21.65L13.7 -21.65Q10.8 -21.65 9.15 -20.2Q7.55 -18.8 7.5 -16.35L7.5 -22Q8.55 -23.95 10.2 -25.05Q12.2 -26.4 14.6 -26.4L14.6 -21.65" />
</g>
<g id="PathID_64" transform="matrix(0.713555, 0, 0, 0.713555, 1340.2, 687)" opacity="1">
</g>
<g id="PathID_65" transform="matrix(0.713555, 0, 0, 0.713555, 1353.15, 687)" opacity="1">
<path style="fill:#8C00FF;fill-opacity:1" d="M6.95 -21.55L7.5 -17.85L7.5 0L2.75 0L2.75 -25.95L7.5 -25.95L7.5 -22.4Q7.15 -22.05 6.95 -21.55M13.85 -18Q13.85 -20 13.05 -20.95Q12.25 -21.95 10.65 -21.95Q9.05 -21.95 8.25 -20.9Q7.5 -19.9 7.5 -17.85L7.5 -22.4Q8.15 -24.25 9.35 -25.2Q10.9 -26.4 12.9 -26.4Q15.65 -26.4 17.1 -24.6Q18.6 -22.8 18.6 -19.4L18.6 0L13.85 0L13.85 -18" />
</g>
<g id="PathID_66" transform="matrix(0.713555, 0, 0, 0.713555, 1353.15, 687)" opacity="1">
</g>
<g id="PathID_67" transform="matrix(0.713555, 0, 0, 0.713555, 1369.9, 687)" opacity="1">
<path style="fill:#8C00FF;fill-opacity:1" d="M8.75 0.4Q5.55 0.4 3.95 -1.4Q2.35 -3.25 2.35 -6.9Q2.35 -11.25 4.35 -13.4Q6.35 -15.6 10.4 -15.6L13.5 -15.6L13.5 -18.95Q13.5 -20.55 12.65 -21.4Q11.8 -22.25 10.3 -22.25Q9 -22.25 8.25 -21.4Q7.5 -20.55 7.5 -18.95L2.9 -18.95Q2.9 -22.5 4.85 -24.45Q6.85 -26.4 10.45 -26.4Q12.85 -26.4 14.55 -25.5Q16.3 -24.65 17.2 -22.95Q18.1 -21.3 18.1 -18.95L18.1 0L13.5 0L13.5 -2.75Q14 -3.85 14 -5.4L13.5 -7.8L13.5 -11.35L14.05 -11.35L13.7 -15.6L13.5 -15.6L13.5 -11.35L10.4 -11.35Q8.65 -11.35 7.75 -10.2Q6.9 -9.1 6.9 -6.9Q6.9 -5.35 7.65 -4.6Q8.45 -3.85 9.95 -3.85Q11.75 -3.85 12.6 -4.85Q13.5 -5.85 13.5 -7.8L13.5 -2.75Q13.5 -2.45 13.4 -2.2Q12.8 -0.9 11.65 -0.25Q10.5 0.4 8.75 0.4" />
</g>
<g id="PathID_68" transform="matrix(0.713555, 0, 0, 0.713555, 1369.9, 687)" opacity="1">
</g>
<g id="PathID_69" transform="matrix(0.713555, 0, 0, 0.713555, 1386.25, 687)" opacity="1">
<path style="fill:#8C00FF;fill-opacity:1" d="M18.4 -19.4Q18.4 -20.75 18 -21.8Q18.7 -24 20.1 -25.15Q21.65 -26.4 23.65 -26.4Q25.5 -26.4 26.75 -25.55Q28 -24.75 28.65 -23.2Q29.35 -21.65 29.35 -19.4L29.35 0L24.6 0L24.6 -18Q24.6 -20 23.8 -20.95Q23 -21.95 21.4 -21.95Q19.9 -21.95 19.15 -20.9Q18.4 -19.9 18.4 -17.85L18.4 -19.4M13.65 -18Q13.65 -20 12.9 -20.95Q12.2 -21.95 10.7 -21.95Q9.1 -21.95 8.3 -20.9Q7.5 -19.9 7.5 -17.85L7.5 -22.4Q8.15 -24.25 9.35 -25.2Q10.9 -26.4 12.95 -26.4Q14.7 -26.4 15.9 -25.6Q17.15 -24.8 17.75 -23.2Q18 -22.55 18 -21.8Q17.8 -21.6 17.75 -21.4L18.4 -17.85L18.4 0L13.65 0L13.65 -18M6.95 -21.55L7.5 -17.85L7.5 0L2.75 0L2.75 -25.95L7.5 -25.95L7.5 -22.4Q7.15 -22.05 6.95 -21.55" />
</g>
<g id="PathID_70" transform="matrix(0.713555, 0, 0, 0.713555, 1386.25, 687)" opacity="1">
</g>
<g id="PathID_71" transform="matrix(0.713555, 0, 0, 0.713555, 1410.6, 687)" opacity="1">
<path style="fill:#8C00FF;fill-opacity:1" d="M6.8 -15.05L13.15 -15.05L13.15 -17.85Q13.15 -19.9 12.3 -21Q11.5 -22.1 9.95 -22.1Q8.45 -22.1 7.6 -20.9Q6.8 -19.75 6.8 -17.55L6.8 -15.05L5.55 -15.05L5.55 -11.1L6.8 -11.1L6.8 -8.1Q6.8 -6.2 7.65 -5.1Q8.55 -4.05 10.15 -4.05Q11.6 -4.05 12.4 -4.85Q13.25 -5.65 13.25 -7.1L13.25 -7.25L17.8 -7.25L17.8 -7.1Q17.8 -3.5 15.8 -1.55Q13.8 0.4 10.15 0.4Q7.65 0.4 5.85 -0.6Q4.1 -1.65 3.15 -3.55Q2.25 -5.5 2.25 -8.2L2.25 -17.3Q2.25 -20.15 3.15 -22.2Q4.05 -24.25 5.75 -25.3Q7.5 -26.4 9.95 -26.4Q12.4 -26.4 14.15 -25.4Q15.9 -24.4 16.8 -22.5Q17.7 -20.65 17.7 -17.95L17.7 -11.1L6.8 -11.1L6.8 -15.05" />
</g>
<g id="PathID_72" transform="matrix(0.713555, 0, 0, 0.713555, 1410.6, 687)" opacity="1">
</g>
<g id="PathID_73" transform="matrix(0.436198, 0, 0, 0.436198, 1305.5, 485.55)" opacity="1">
<path style="fill:#000000;fill-opacity:1" d="M3.4 10.2L3.4 -26.55L7.5 -26.55L7.5 -23.05Q8.95 -25.1 10.75 -26.1Q12.6 -27.15 15.2 -27.15Q18.6 -27.15 21.2 -25.4Q23.8 -23.65 25.1 -20.45Q26.45 -17.25 26.45 -13.45Q26.45 -9.4 24.95 -6.1Q23.5 -2.85 20.7 -1.1Q17.95 0.6 14.85 0.6Q12.6 0.6 10.8 -0.35Q9.05 -1.3 7.9 -2.75L7.9 10.2L3.4 10.2M7.45 -13.1Q7.45 -7.95 9.5 -5.5Q11.55 -3.1 14.5 -3.1Q17.5 -3.1 19.65 -5.6Q21.8 -8.15 21.8 -13.45Q21.8 -18.55 19.7 -21.05Q17.6 -23.6 14.7 -23.6Q11.85 -23.6 9.65 -20.9Q7.45 -18.2 7.45 -13.1" />
</g>
<g id="PathID_74" transform="matrix(0.436198, 0, 0, 0.436198, 1305.5, 485.55)" opacity="1">
</g>
<g id="PathID_75" transform="matrix(0.436198, 0, 0, 0.436198, 1317.9, 485.55)" opacity="1">
<path style="fill:#000000;fill-opacity:1" d="M20.7 -3.35Q18.2 -1.15 15.85 -0.25Q13.55 0.6 10.9 0.6Q6.55 0.6 4.2 -1.5Q1.85 -3.65 1.85 -7Q1.85 -8.95 2.7 -10.55Q3.6 -12.15 5.05 -13.1Q6.5 -14.1 8.3 -14.6Q9.6 -14.95 12.3 -15.3Q17.75 -15.95 20.3 -16.85L20.35 -18Q20.35 -20.75 19.05 -21.85Q17.35 -23.4 13.95 -23.4Q10.75 -23.4 9.25 -22.25Q7.75 -21.15 7.05 -18.35L2.65 -18.95Q3.25 -21.75 4.6 -23.5Q6 -25.25 8.6 -26.2Q11.2 -27.15 14.6 -27.15Q18 -27.15 20.1 -26.3Q22.25 -25.5 23.25 -24.3Q24.25 -23.1 24.65 -21.25Q24.9 -20.1 24.9 -17.1L24.9 -11.1Q24.9 -4.85 25.15 -3.15Q25.45 -1.5 26.3 0L21.6 0Q20.9 -1.4 20.7 -3.35M20.3 -13.3Q17.85 -12.3 12.95 -11.6Q10.15 -11.2 9 -10.7Q7.85 -10.2 7.25 -9.2Q6.65 -8.25 6.65 -7.1Q6.65 -5.3 8 -4.1Q9.35 -2.95 12 -2.95Q14.6 -2.95 16.6 -4.05Q18.65 -5.2 19.6 -7.15Q20.3 -8.65 20.3 -11.65L20.3 -13.3" />
</g>
<g id="PathID_76" transform="matrix(0.436198, 0, 0, 0.436198, 1317.9, 485.55)" opacity="1">
</g>
<g id="PathID_77" transform="matrix(0.436198, 0, 0, 0.436198, 1330.35, 485.55)" opacity="1">
<path style="fill:#000000;fill-opacity:1" d="M1.6 -7.95L6.05 -8.65Q6.4 -5.95 8.1 -4.5Q9.8 -3.1 12.9 -3.1Q16 -3.1 17.5 -4.35Q19 -5.6 19 -7.3Q19 -8.85 17.65 -9.7Q16.75 -10.3 13.1 -11.25Q8.15 -12.5 6.2 -13.4Q4.3 -14.3 3.3 -15.9Q2.35 -17.55 2.35 -19.5Q2.35 -21.25 3.15 -22.75Q3.95 -24.3 5.35 -25.3Q6.4 -26.05 8.2 -26.6Q10.05 -27.15 12.1 -27.15Q15.25 -27.15 17.6 -26.25Q19.95 -25.35 21.05 -23.8Q22.2 -22.25 22.65 -19.7L18.25 -19.1Q17.95 -21.15 16.5 -22.3Q15.05 -23.45 12.45 -23.45Q9.35 -23.45 8 -22.4Q6.7 -21.4 6.7 -20Q6.7 -19.15 7.25 -18.45Q7.8 -17.7 8.95 -17.25L12.95 -16.1Q17.7 -14.8 19.6 -14Q21.5 -13.2 22.55 -11.65Q23.65 -10.1 23.65 -7.8Q23.65 -5.55 22.3 -3.55Q21 -1.55 18.5 -0.45Q16.05 0.6 12.95 0.6Q7.75 0.6 5.05 -1.55Q2.35 -3.7 1.6 -7.95" />
</g>
<g id="PathID_78" transform="matrix(0.436198, 0, 0, 0.436198, 1330.35, 485.55)" opacity="1">
</g>
<g id="PathID_79" transform="matrix(0.436198, 0, 0, 0.436198, 1341.5, 485.55)" opacity="1">
<path style="fill:#000000;fill-opacity:1" d="M1.6 -7.95L6.05 -8.65Q6.4 -5.95 8.1 -4.5Q9.8 -3.1 12.9 -3.1Q16 -3.1 17.5 -4.35Q19 -5.6 19 -7.3Q19 -8.85 17.65 -9.7Q16.75 -10.3 13.1 -11.25Q8.15 -12.5 6.2 -13.4Q4.3 -14.3 3.3 -15.9Q2.35 -17.55 2.35 -19.5Q2.35 -21.25 3.15 -22.75Q3.95 -24.3 5.35 -25.3Q6.4 -26.05 8.2 -26.6Q10.05 -27.15 12.1 -27.15Q15.25 -27.15 17.6 -26.25Q19.95 -25.35 21.05 -23.8Q22.2 -22.25 22.65 -19.7L18.25 -19.1Q17.95 -21.15 16.5 -22.3Q15.05 -23.45 12.45 -23.45Q9.35 -23.45 8 -22.4Q6.7 -21.4 6.7 -20Q6.7 -19.15 7.25 -18.45Q7.8 -17.7 8.95 -17.25L12.95 -16.1Q17.7 -14.8 19.6 -14Q21.5 -13.2 22.55 -11.65Q23.65 -10.1 23.65 -7.8Q23.65 -5.55 22.3 -3.55Q21 -1.55 18.5 -0.45Q16.05 0.6 12.95 0.6Q7.75 0.6 5.05 -1.55Q2.35 -3.7 1.6 -7.95" />
</g>
<g id="PathID_80" transform="matrix(0.436198, 0, 0, 0.436198, 1341.5, 485.55)" opacity="1">
</g>
<g id="PathID_81" transform="matrix(0.436198, 0, 0, 0.436198, 1352.65, 485.55)" opacity="1">
<path style="fill:#000000;fill-opacity:1" d="M8.2 0L0.1 -26.55L4.8 -26.55L9 -11.2L10.55 -5.5L11.95 -11L16.15 -26.55L20.75 -26.55L24.8 -11.15L26.1 -6.05L27.65 -11.15L32.2 -26.55L36.6 -26.55L28.2 0L23.6 0L19.35 -15.9L18.3 -20.4L12.9 0L8.2 0" />
</g>
<g id="PathID_82" transform="matrix(0.436198, 0, 0, 0.436198, 1352.65, 485.55)" opacity="1">
</g>
<g id="PathID_83" transform="matrix(0.436198, 0, 0, 0.436198, 1368.75, 485.55)" opacity="1">
<path style="fill:#000000;fill-opacity:1" d="M1.7 -13.25Q1.7 -20.65 5.8 -24.2Q9.2 -27.15 14.15 -27.15Q19.6 -27.15 23.1 -23.55Q26.6 -19.95 26.6 -13.65Q26.6 -8.5 25.05 -5.55Q23.5 -2.65 20.55 -1Q17.6 0.6 14.15 0.6Q8.55 0.6 5.1 -2.95Q1.7 -6.55 1.7 -13.25M6.35 -13.25Q6.35 -8.15 8.55 -5.6Q10.75 -3.1 14.15 -3.1Q17.5 -3.1 19.7 -5.6Q21.95 -8.15 21.95 -13.4Q21.95 -18.3 19.7 -20.85Q17.45 -23.4 14.15 -23.4Q10.75 -23.4 8.55 -20.85Q6.35 -18.35 6.35 -13.25" />
</g>
<g id="PathID_84" transform="matrix(0.436198, 0, 0, 0.436198, 1368.75, 485.55)" opacity="1">
</g>
<g id="PathID_85" transform="matrix(0.436198, 0, 0, 0.436198, 1381.2, 485.55)" opacity="1">
<path style="fill:#000000;fill-opacity:1" d="M3.35 0L3.35 -26.55L7.4 -26.55L7.4 -22.5Q8.9 -25.35 10.2 -26.25Q11.55 -27.15 13.1 -27.15Q15.4 -27.15 17.75 -25.7L16.15 -21.5Q14.55 -22.5 12.9 -22.5Q11.4 -22.5 10.2 -21.6Q9.05 -20.7 8.55 -19.15Q7.85 -16.75 7.85 -13.9L7.85 0L3.35 0" />
</g>
<g id="PathID_86" transform="matrix(0.436198, 0, 0, 0.436198, 1381.2, 485.55)" opacity="1">
</g>
<g id="PathID_87" transform="matrix(0.436198, 0, 0, 0.436198, 1388.6, 485.55)" opacity="1">
<path style="fill:#000000;fill-opacity:1" d="M20.55 0L20.55 -3.35Q18 0.6 13.1 0.6Q9.95 0.6 7.25 -1.15Q4.6 -2.9 3.15 -6Q1.7 -9.15 1.7 -13.25Q1.7 -17.2 3 -20.45Q4.35 -23.7 7 -25.4Q9.65 -27.15 12.9 -27.15Q15.3 -27.15 17.15 -26.1Q19.05 -25.1 20.25 -23.45L20.25 -36.65L24.75 -36.65L24.75 0L20.55 0M6.35 -13.2Q6.35 -8.1 8.5 -5.6Q10.65 -3.1 13.6 -3.1Q16.55 -3.1 18.6 -5.5Q20.7 -7.9 20.7 -12.85Q20.7 -18.3 18.55 -20.85Q16.45 -23.4 13.35 -23.4Q10.35 -23.4 8.35 -20.95Q6.35 -18.5 6.35 -13.2" />
</g>
<g id="PathID_88" transform="matrix(0.436198, 0, 0, 0.436198, 1388.6, 485.55)" opacity="1">
</g>
<g id="PathID_89" transform="matrix(0.412871, -0.00262817, 0.00262817, 0.412871, 1782.8, 636)" opacity="1">
<path style="fill:#8C00FF;fill-opacity:1" d="M42.35 -40.3L29.6 -39.8L21.45 -12.95L11.95 -39.5L3.05 -38L15.3 0.5L26.35 2.6L42.35 -40.3M44.95 -41.9L45.8 -41.05L28.45 5.45L15.1 2.95L14.25 2.1L13.95 2.05L0.75 -39.45L13.15 -41.5L13.3 -41.1L14.05 -40.3L21.5 -19.35L28.3 -41.55L45.05 -42.2L44.95 -41.9" />
</g>
<g id="PathID_90" transform="matrix(0.412871, -0.00262817, 0.00262817, 0.412871, 1782.8, 636)" opacity="1">
</g>
<g id="PathID_91" transform="matrix(0.412871, -0.00262817, 0.00262817, 0.412871, 1802.3, 635.9)" opacity="1">
<path style="fill:#8C00FF;fill-opacity:1" d="M9 -0.25L12.8 -39.95L2.9 -40.55L3.25 1.05L9 -0.25M1.7 3.2L1.45 3.3L1.1 -42.4L14.7 -41.65L14.65 -41.35L15.6 -40.45L11.55 2.1L2.65 4.1L1.7 3.2" />
</g>
<g id="PathID_92" transform="matrix(0.412871, -0.00262817, 0.00262817, 0.412871, 1802.3, 635.9)" opacity="1">
</g>
<g id="PathID_93" transform="matrix(0.412871, -0.00262817, 0.00262817, 0.412871, 1809.75, 635.85)" opacity="1">
<path style="fill:#8C00FF;fill-opacity:1" d="M31.45 -8.35L10.1 -7.6L9.55 -24.4L31.05 -26.95L31.45 -8.35M43.95 -26.95Q45.15 -41.65 33.05 -42.1L4.85 -39.55L3.8 0.45L33.1 1.1Q43 0.3 43.05 -11.1L43.95 -26.95M2.3 2.2L1.95 2.2L3.1 -41.2L32.95 -43.9Q40.1 -43.6 43.35 -39.15Q46.7 -35.5 46.7 -28.4L46.65 -27.15L46.6 -25.85L45.7 -9.95Q45.55 2.75 34.25 3.75L3.15 3.05L2.3 2.2M12.65 -9.45L29.6 -10.05L29.3 -23.9L12.25 -21.9L12.65 -9.45" />
</g>
<g id="PathID_94" transform="matrix(0.412871, -0.00262817, 0.00262817, 0.412871, 1809.75, 635.85)" opacity="1">
</g>
<g id="PathID_95" transform="matrix(0.412871, -0.00262817, 0.00262817, 0.412871, 1830.45, 635.7)" opacity="1">
<path style="fill:#8C00FF;fill-opacity:1" d="M18.2 -13.95L19.4 -24.4L3.5 -24.55L3.6 -13.75L18.2 -13.95M2.15 -11.95L1.8 -11.95L1.7 -26.35L21.4 -26.2L21.35 -25.9L22.25 -25L20.7 -11.3L3 -11.1L2.15 -11.95" />
</g>
<g id="PathID_96" transform="matrix(0.412871, -0.00262817, 0.00262817, 0.412871, 1830.45, 635.7)" opacity="1">
</g>
<g id="PathID_97" transform="matrix(0.412871, -0.00262817, 0.00262817, 0.412871, 1840.7, 635.65)" opacity="1">
<path style="fill:#8C00FF;fill-opacity:1" d="M9 -0.25L12.8 -39.95L2.9 -40.55L3.25 1.05L9 -0.25M1.7 3.2L1.45 3.3L1.1 -42.4L14.7 -41.65L14.65 -41.35L15.6 -40.45L11.55 2.1L2.65 4.1L1.7 3.2" />
</g>
<g id="PathID_98" transform="matrix(0.412871, -0.00262817, 0.00262817, 0.412871, 1840.7, 635.65)" opacity="1">
</g>
<g id="PathID_99" transform="matrix(0.412871, -0.00262817, 0.00262817, 0.412871, 1848.15, 635.6)" opacity="1">
<path style="fill:#8C00FF;fill-opacity:1" d="M3.35 0.15L11.9 0.8L13.6 -25.35L30.75 -25.4L29.35 0.25L37.45 -0.1L39.05 -28.45Q39.1 -40 28 -40.25L17.4 -40.15Q13.4 -40.3 10.25 -35.35Q8.9 -39.75 1 -41.95L3.35 0.15M1.45 -43.7Q7.75 -41.9 10.4 -38.65Q13.45 -41.95 17.15 -41.95L17.4 -41.95L28 -42.05Q35.3 -41.9 38.5 -37.45Q41.7 -34.15 41.7 -27.55L41.7 -27.35L40 2.55L28.65 2.95L27.8 2.05L27.45 2.05L28.75 -22.75L16.15 -22.7L14.45 3.55L2.85 2.7L1.95 1.8L1.65 1.8L-0.8 -41.9L1.45 -43.7" />
</g>
<g id="PathID_100" transform="matrix(0.412871, -0.00262817, 0.00262817, 0.412871, 1848.15, 635.6)" opacity="1">
</g>
<g id="PathID_101" transform="matrix(0.742122, -0.00472406, 0.00472406, 0.742122, 1660.25, 476.95)" opacity="1">
<path style="fill:#8C00FF;fill-opacity:1" d="M7.5 -22.5Q8.1 -24.15 9.25 -25.15Q10.75 -26.4 12.5 -26.4Q14.35 -26.4 15.65 -25.4Q17 -24.45 17.65 -22.6Q18.35 -20.75 18.35 -18.15L18.35 -8Q18.35 -5.35 17.6 -3.45Q16.9 -1.6 15.55 -0.6Q14.2 0.4 12.25 0.4Q10.45 0.4 9.05 -0.75Q7.9 -1.75 7.5 -3.45L7.5 -8.1Q7.5 -6.8 7.85 -5.85Q8.2 -4.95 8.85 -4.45Q9.55 -3.95 10.55 -3.95Q11.95 -3.95 12.75 -5.05Q13.6 -6.2 13.6 -8.2L13.6 -17.95Q13.6 -19.85 12.75 -20.95Q11.95 -22.05 10.55 -22.05Q9.55 -22.05 8.85 -21.55Q8.2 -21.1 7.85 -20.2Q7.5 -19.3 7.5 -18.05L7.5 -22.5M2.75 -36.35L7.5 -36.35L7.5 -22.5Q7.15 -22.15 6.95 -21.65L7.5 -18.05L7.5 -8.1L7.15 -4.05Q7.25 -3.7 7.5 -3.45L7.5 0L2.75 0L2.75 -36.35" />
</g>
<g id="PathID_102" transform="matrix(0.742122, -0.00472406, 0.00472406, 0.742122, 1660.25, 476.95)" opacity="1">
</g>
<g id="PathID_103" transform="matrix(0.742122, -0.00472406, 0.00472406, 0.742122, 1677.1, 476.8)" opacity="1">
<path style="fill:#8C00FF;fill-opacity:1" d="M6.8 -15.05L13.15 -15.05L13.15 -17.85Q13.15 -19.9 12.3 -21Q11.5 -22.1 9.95 -22.1Q8.45 -22.1 7.6 -20.9Q6.8 -19.75 6.8 -17.55L6.8 -15.05L5.55 -15.05L5.55 -11.1L6.8 -11.1L6.8 -8.1Q6.8 -6.2 7.65 -5.1Q8.55 -4.05 10.15 -4.05Q11.6 -4.05 12.4 -4.85Q13.25 -5.65 13.25 -7.1L13.25 -7.25L17.8 -7.25L17.8 -7.1Q17.8 -3.5 15.8 -1.55Q13.8 0.4 10.15 0.4Q7.65 0.4 5.85 -0.6Q4.1 -1.65 3.15 -3.55Q2.25 -5.5 2.25 -8.2L2.25 -17.3Q2.25 -20.15 3.15 -22.2Q4.05 -24.25 5.75 -25.3Q7.5 -26.4 9.95 -26.4Q12.4 -26.4 14.15 -25.4Q15.9 -24.4 16.8 -22.5Q17.7 -20.65 17.7 -17.95L17.7 -11.1L6.8 -11.1L6.8 -15.05" />
</g>
<g id="PathID_104" transform="matrix(0.742122, -0.00472406, 0.00472406, 0.742122, 1677.1, 476.8)" opacity="1">
</g>
<g id="PathID_105" transform="matrix(0.742122, -0.00472406, 0.00472406, 0.742122, 1693.5, 476.7)" opacity="1">
<path style="fill:#8C00FF;fill-opacity:1" d="M10.1 0.4Q7.6 0.4 5.85 -0.5Q4.1 -1.4 3.15 -3.15Q2.25 -4.9 2.25 -7.35L2.25 -18.3Q2.25 -20.85 3.15 -22.65Q4.1 -24.5 5.85 -25.45Q7.6 -26.4 10.1 -26.4Q12.6 -26.4 14.35 -25.45Q16.15 -24.5 17.05 -22.65Q18 -20.8 18 -18.25L18 -17.4L13.3 -17.4L13.3 -18.25Q13.3 -20 12.45 -20.95Q11.65 -21.95 10.15 -21.95Q8.65 -21.95 7.8 -21Q7 -20.05 7 -18.3L7 -7.35Q7 -5.75 7.8 -4.9Q8.65 -4.05 10.15 -4.05Q11.65 -4.05 12.45 -4.95Q13.3 -5.85 13.3 -7.45L13.3 -8.25L18.05 -8.25L18.05 -7.45Q18.05 -4.95 17.1 -3.2Q16.15 -1.45 14.35 -0.5Q12.6 0.4 10.1 0.4" />
</g>
<g id="PathID_106" transform="matrix(0.742122, -0.00472406, 0.00472406, 0.742122, 1693.5, 476.7)" opacity="1">
</g>
<g id="PathID_107" transform="matrix(0.742122, -0.00472406, 0.00472406, 0.742122, 1709.35, 476.6)" opacity="1">
<path style="fill:#8C00FF;fill-opacity:1" d="M9.75 0.4Q7.4 0.4 5.7 -0.5Q4 -1.4 3.1 -3.05Q2.25 -4.75 2.25 -7.15L2.25 -19Q2.25 -21.35 3.1 -23Q4 -24.65 5.7 -25.5Q7.4 -26.4 9.75 -26.4Q12.1 -26.4 13.75 -25.5Q15.4 -24.65 16.25 -23Q17.15 -21.35 17.15 -19L17.15 -7.05Q17.15 -4.7 16.25 -3Q15.4 -1.35 13.75 -0.45Q12.1 0.4 9.75 0.4M9.7 -4.25Q10.95 -4.25 11.65 -5Q12.4 -5.8 12.4 -7.25L12.4 -18.8Q12.4 -20.2 11.65 -20.95Q10.95 -21.75 9.7 -21.75Q8.45 -21.75 7.7 -20.95Q7 -20.2 7 -18.8L7 -7.25Q7 -5.85 7.7 -5.05Q8.4 -4.25 9.7 -4.25" />
</g>
<g id="PathID_108" transform="matrix(0.742122, -0.00472406, 0.00472406, 0.742122, 1709.35, 476.6)" opacity="1">
</g>
<g id="PathID_109" transform="matrix(0.742122, -0.00472406, 0.00472406, 0.742122, 1725.25, 476.5)" opacity="1">
<path style="fill:#8C00FF;fill-opacity:1" d="M18.4 -19.4Q18.4 -20.75 18 -21.8Q18.7 -24 20.1 -25.15Q21.65 -26.4 23.65 -26.4Q25.5 -26.4 26.75 -25.55Q28 -24.75 28.65 -23.2Q29.35 -21.65 29.35 -19.4L29.35 0L24.6 0L24.6 -18Q24.6 -20 23.8 -20.95Q23 -21.95 21.4 -21.95Q19.9 -21.95 19.15 -20.9Q18.4 -19.9 18.4 -17.85L18.4 -19.4M13.65 -18Q13.65 -20 12.9 -20.95Q12.2 -21.95 10.7 -21.95Q9.1 -21.95 8.3 -20.9Q7.5 -19.9 7.5 -17.85L7.5 -22.4Q8.15 -24.25 9.35 -25.2Q10.9 -26.4 12.95 -26.4Q14.7 -26.4 15.9 -25.6Q17.15 -24.8 17.75 -23.2Q18 -22.55 18 -21.8Q17.8 -21.6 17.75 -21.4L18.4 -17.85L18.4 0L13.65 0L13.65 -18M6.95 -21.55L7.5 -17.85L7.5 0L2.75 0L2.75 -25.95L7.5 -25.95L7.5 -22.4Q7.15 -22.05 6.95 -21.55" />
</g>
<g id="PathID_110" transform="matrix(0.742122, -0.00472406, 0.00472406, 0.742122, 1725.25, 476.5)" opacity="1">
</g>
<g id="PathID_111" transform="matrix(0.742122, -0.00472406, 0.00472406, 0.742122, 1750.55, 476.35)" opacity="1">
<path style="fill:#8C00FF;fill-opacity:1" d="M6.8 -15.05L13.15 -15.05L13.15 -17.85Q13.15 -19.9 12.3 -21Q11.5 -22.1 9.95 -22.1Q8.45 -22.1 7.6 -20.9Q6.8 -19.75 6.8 -17.55L6.8 -15.05L5.55 -15.05L5.55 -11.1L6.8 -11.1L6.8 -8.1Q6.8 -6.2 7.65 -5.1Q8.55 -4.05 10.15 -4.05Q11.6 -4.05 12.4 -4.85Q13.25 -5.65 13.25 -7.1L13.25 -7.25L17.8 -7.25L17.8 -7.1Q17.8 -3.5 15.8 -1.55Q13.8 0.4 10.15 0.4Q7.65 0.4 5.85 -0.6Q4.1 -1.65 3.15 -3.55Q2.25 -5.5 2.25 -8.2L2.25 -17.3Q2.25 -20.15 3.15 -22.2Q4.05 -24.25 5.75 -25.3Q7.5 -26.4 9.95 -26.4Q12.4 -26.4 14.15 -25.4Q15.9 -24.4 16.8 -22.5Q17.7 -20.65 17.7 -17.95L17.7 -11.1L6.8 -11.1L6.8 -15.05" />
</g>
<g id="PathID_112" transform="matrix(0.742122, -0.00472406, 0.00472406, 0.742122, 1750.55, 476.35)" opacity="1">
</g>
<g id="PathID_113" transform="matrix(0.742122, -0.00472406, 0.00472406, 0.742122, 1774.1, 476.2)" opacity="1">
<path style="fill:#8C00FF;fill-opacity:1" d="M8.75 0.4Q5.55 0.4 3.95 -1.4Q2.35 -3.25 2.35 -6.9Q2.35 -11.25 4.35 -13.4Q6.35 -15.6 10.4 -15.6L13.5 -15.6L13.5 -18.95Q13.5 -20.55 12.65 -21.4Q11.8 -22.25 10.3 -22.25Q9 -22.25 8.25 -21.4Q7.5 -20.55 7.5 -18.95L2.9 -18.95Q2.9 -22.5 4.85 -24.45Q6.85 -26.4 10.45 -26.4Q12.85 -26.4 14.55 -25.5Q16.3 -24.65 17.2 -22.95Q18.1 -21.3 18.1 -18.95L18.1 0L13.5 0L13.5 -2.75Q14 -3.85 14 -5.4L13.5 -7.8L13.5 -11.35L14.05 -11.35L13.7 -15.6L13.5 -15.6L13.5 -11.35L10.4 -11.35Q8.65 -11.35 7.75 -10.2Q6.9 -9.1 6.9 -6.9Q6.9 -5.35 7.65 -4.6Q8.45 -3.85 9.95 -3.85Q11.75 -3.85 12.6 -4.85Q13.5 -5.85 13.5 -7.8L13.5 -2.75Q13.5 -2.45 13.4 -2.2Q12.8 -0.9 11.65 -0.25Q10.5 0.4 8.75 0.4" />
</g>
<g id="PathID_114" transform="matrix(0.742122, -0.00472406, 0.00472406, 0.742122, 1774.1, 476.2)" opacity="1">
</g>
<g id="PathID_115" transform="matrix(0.742122, -0.00472406, 0.00472406, 0.742122, 1798.25, 476.05)" opacity="1">
<path style="fill:#8C00FF;fill-opacity:1" d="M14.1 -25.95L18.85 -25.95L11.8 0L8.05 0L1 -25.95L5.75 -25.95L9.95 -6.85L14.1 -25.95" />
</g>
<g id="PathID_116" transform="matrix(0.742122, -0.00472406, 0.00472406, 0.742122, 1798.25, 476.05)" opacity="1">
</g>
<g id="PathID_117" transform="matrix(0.742122, -0.00472406, 0.00472406, 0.742122, 1814.55, 475.95)" opacity="1">
<path style="fill:#8C00FF;fill-opacity:1" d="M2.7 -36L7.45 -36L7.45 -31.25L2.7 -31.25L2.7 -36M2.7 -25.95L7.45 -25.95L7.45 0L2.7 0L2.7 -25.95" />
</g>
<g id="PathID_118" transform="matrix(0.742122, -0.00472406, 0.00472406, 0.742122, 1814.55, 475.95)" opacity="1">
</g>
<g id="PathID_119" transform="matrix(0.742122, -0.00472406, 0.00472406, 0.742122, 1823.65, 475.9)" opacity="1">
<path style="fill:#8C00FF;fill-opacity:1" d="M7.95 0.45Q6.15 0.45 4.85 -0.45Q3.6 -1.35 2.9 -3.1Q2.25 -4.85 2.25 -7.3L2.25 -18.35Q2.25 -20.9 2.9 -22.7Q3.6 -24.5 4.85 -25.45Q6.15 -26.4 7.95 -26.4Q9.75 -26.4 11.2 -25.2Q12.4 -24.2 13.1 -22.5L13.1 -36.35L17.85 -36.35L17.85 0L13.1 0L13.1 -3.5Q13.35 -3.75 13.45 -4.05L13.1 -7.7L13.1 -18.1L13.6 -21.8Q13.45 -22.2 13.1 -22.5L13.1 -18.1Q13.1 -19.3 12.7 -20.15Q12.35 -21.05 11.65 -21.5Q11 -21.95 10.05 -21.95Q8.6 -21.95 7.8 -20.9Q7 -19.9 7 -18.1L7 -7.5Q7 -5.8 7.8 -4.85Q8.6 -3.95 10.05 -3.95Q11 -3.95 11.65 -4.4Q12.35 -4.85 12.7 -5.65Q13.1 -6.5 13.1 -7.7L13.1 -3.5Q12.55 -1.75 11.3 -0.7Q9.9 0.45 7.95 0.45" />
</g>
<g id="PathID_120" transform="matrix(0.742122, -0.00472406, 0.00472406, 0.742122, 1823.65, 475.9)" opacity="1">
</g>
<g id="PathID_121" transform="matrix(0.742122, -0.00472406, 0.00472406, 0.742122, 1840.5, 475.8)" opacity="1">
<path style="fill:#8C00FF;fill-opacity:1" d="M2.7 -36L7.45 -36L7.45 -31.25L2.7 -31.25L2.7 -36M2.7 -25.95L7.45 -25.95L7.45 0L2.7 0L2.7 -25.95" />
</g>
<g id="PathID_122" transform="matrix(0.742122, -0.00472406, 0.00472406, 0.742122, 1840.5, 475.8)" opacity="1">
</g>
<g id="PathID_123" transform="matrix(0.742122, -0.00472406, 0.00472406, 0.742122, 1849.6, 475.75)" opacity="1">
<path style="fill:#8C00FF;fill-opacity:1" d="M7.95 0.45Q6.15 0.45 4.85 -0.45Q3.6 -1.35 2.9 -3.1Q2.25 -4.85 2.25 -7.3L2.25 -18.35Q2.25 -20.9 2.9 -22.7Q3.6 -24.5 4.85 -25.45Q6.15 -26.4 7.95 -26.4Q9.75 -26.4 11.2 -25.2Q12.4 -24.2 13.1 -22.5L13.1 -36.35L17.85 -36.35L17.85 0L13.1 0L13.1 -3.5Q13.35 -3.75 13.45 -4.05L13.1 -7.7L13.1 -18.1L13.6 -21.8Q13.45 -22.2 13.1 -22.5L13.1 -18.1Q13.1 -19.3 12.7 -20.15Q12.35 -21.05 11.65 -21.5Q11 -21.95 10.05 -21.95Q8.6 -21.95 7.8 -20.9Q7 -19.9 7 -18.1L7 -7.5Q7 -5.8 7.8 -4.85Q8.6 -3.95 10.05 -3.95Q11 -3.95 11.65 -4.4Q12.35 -4.85 12.7 -5.65Q13.1 -6.5 13.1 -7.7L13.1 -3.5Q12.55 -1.75 11.3 -0.7Q9.9 0.45 7.95 0.45" />
</g>
<g id="PathID_124" transform="matrix(0.742122, -0.00472406, 0.00472406, 0.742122, 1849.6, 475.75)" opacity="1">
</g>
<g id="PathID_125" transform="matrix(0.742122, -0.00472406, 0.00472406, 0.742122, 1866.45, 475.6)" opacity="1">
<path style="fill:#8C00FF;fill-opacity:1" d="M9.75 0.4Q7.4 0.4 5.7 -0.5Q4 -1.4 3.1 -3.05Q2.25 -4.75 2.25 -7.15L2.25 -19Q2.25 -21.35 3.1 -23Q4 -24.65 5.7 -25.5Q7.4 -26.4 9.75 -26.4Q12.1 -26.4 13.75 -25.5Q15.4 -24.65 16.25 -23Q17.15 -21.35 17.15 -19L17.15 -7.05Q17.15 -4.7 16.25 -3Q15.4 -1.35 13.75 -0.45Q12.1 0.4 9.75 0.4M9.7 -4.25Q10.95 -4.25 11.65 -5Q12.4 -5.8 12.4 -7.25L12.4 -18.8Q12.4 -20.2 11.65 -20.95Q10.95 -21.75 9.7 -21.75Q8.45 -21.75 7.7 -20.95Q7 -20.2 7 -18.8L7 -7.25Q7 -5.85 7.7 -5.05Q8.4 -4.25 9.7 -4.25" />
</g>
<g id="PathID_126" transform="matrix(0.742122, -0.00472406, 0.00472406, 0.742122, 1866.45, 475.6)" opacity="1">
</g>
<g id="PathID_127" transform="matrix(0.742122, -0.00472406, 0.00472406, 0.742122, 1882.35, 475.5)" opacity="1">
<path style="fill:#8C00FF;fill-opacity:1" d="M8.15 -21.45L8.15 -6.75Q8.15 -5.6 8.6 -4.95Q9.1 -4.35 10.05 -4.35L11.95 -4.35L11.95 0.15L9.5 0.15Q6.35 0.15 4.85 -1.55Q3.4 -3.3 3.4 -6.75L3.4 -21.45L8.15 -21.45M0.75 -25.95L3.4 -25.95L3.4 -21.45L0.75 -21.45L0.75 -25.95M3.4 -25.95L3.4 -33.5L8.15 -33.5L8.15 -25.95L11.95 -25.95L3.4 -25.95M11.95 -25.95L11.95 -21.45L8.15 -21.45L8.15 -25.95" />
</g>
<g id="PathID_128" transform="matrix(0.742122, -0.00472406, 0.00472406, 0.742122, 1882.35, 475.5)" opacity="1">
</g>
<g id="PathID_129" transform="matrix(0.742122, -0.00472406, 0.00472406, 0.742122, 1893.95, 475.45)" opacity="1">
<path style="fill:#8C00FF;fill-opacity:1" d="M2.7 -36L7.45 -36L7.45 -31.25L2.7 -31.25L2.7 -36M2.7 -25.95L7.45 -25.95L7.45 0L2.7 0L2.7 -25.95" />
</g>
<g id="PathID_130" transform="matrix(0.742122, -0.00472406, 0.00472406, 0.742122, 1893.95, 475.45)" opacity="1">
</g>
<g id="PathID_131" transform="matrix(0.742122, -0.00472406, 0.00472406, 0.742122, 1903.05, 475.4)" opacity="1">
<path style="fill:#8C00FF;fill-opacity:1" d="M8.75 0.4Q5.55 0.4 3.95 -1.4Q2.35 -3.25 2.35 -6.9Q2.35 -11.25 4.35 -13.4Q6.35 -15.6 10.4 -15.6L13.5 -15.6L13.5 -18.95Q13.5 -20.55 12.65 -21.4Q11.8 -22.25 10.3 -22.25Q9 -22.25 8.25 -21.4Q7.5 -20.55 7.5 -18.95L2.9 -18.95Q2.9 -22.5 4.85 -24.45Q6.85 -26.4 10.45 -26.4Q12.85 -26.4 14.55 -25.5Q16.3 -24.65 17.2 -22.95Q18.1 -21.3 18.1 -18.95L18.1 0L13.5 0L13.5 -2.75Q14 -3.85 14 -5.4L13.5 -7.8L13.5 -11.35L14.05 -11.35L13.7 -15.6L13.5 -15.6L13.5 -11.35L10.4 -11.35Q8.65 -11.35 7.75 -10.2Q6.9 -9.1 6.9 -6.9Q6.9 -5.35 7.65 -4.6Q8.45 -3.85 9.95 -3.85Q11.75 -3.85 12.6 -4.85Q13.5 -5.85 13.5 -7.8L13.5 -2.75Q13.5 -2.45 13.4 -2.2Q12.8 -0.9 11.65 -0.25Q10.5 0.4 8.75 0.4" />
</g>
<g id="PathID_132" transform="matrix(0.742122, -0.00472406, 0.00472406, 0.742122, 1903.05, 475.4)" opacity="1">
</g>
<g id="PathID_133" transform="matrix(0.742122, -0.00472406, 0.00472406, 0.742122, 1920.05, 475.3)" opacity="1">
<path style="fill:#8C00FF;fill-opacity:1" d="M6.95 -21.55L7.5 -17.85L7.5 0L2.75 0L2.75 -25.95L7.5 -25.95L7.5 -22.4Q7.15 -22.05 6.95 -21.55M13.85 -18Q13.85 -20 13.05 -20.95Q12.25 -21.95 10.65 -21.95Q9.05 -21.95 8.25 -20.9Q7.5 -19.9 7.5 -17.85L7.5 -22.4Q8.15 -24.25 9.35 -25.2Q10.9 -26.4 12.9 -26.4Q15.65 -26.4 17.1 -24.6Q18.6 -22.8 18.6 -19.4L18.6 0L13.85 0L13.85 -18" />
</g>
<g id="PathID_134" transform="matrix(0.742122, -0.00472406, 0.00472406, 0.742122, 1920.05, 475.3)" opacity="1">
</g>
<g id="PathID_135" transform="matrix(0.46875, 0, 0, 0.46875, 1796.05, 563.75)" opacity="1">
<path style="fill:#8C00FF;fill-opacity:1" d="M9.75 0.4Q7.4 0.4 5.7 -0.5Q4 -1.4 3.1 -3.05Q2.25 -4.75 2.25 -7.15L2.25 -19Q2.25 -21.35 3.1 -23Q4 -24.65 5.7 -25.5Q7.4 -26.4 9.75 -26.4Q12.1 -26.4 13.75 -25.5Q15.4 -24.65 16.25 -23Q17.15 -21.35 17.15 -19L17.15 -7.05Q17.15 -4.7 16.25 -3Q15.4 -1.35 13.75 -0.45Q12.1 0.4 9.75 0.4M9.7 -4.25Q10.95 -4.25 11.65 -5Q12.4 -5.8 12.4 -7.25L12.4 -18.8Q12.4 -20.2 11.65 -20.95Q10.95 -21.75 9.7 -21.75Q8.45 -21.75 7.7 -20.95Q7 -20.2 7 -18.8L7 -7.25Q7 -5.85 7.7 -5.05Q8.4 -4.25 9.7 -4.25" />
</g>
<g id="PathID_136" transform="matrix(0.46875, 0, 0, 0.46875, 1796.05, 563.75)" opacity="1">
</g>
<g id="PathID_137" transform="matrix(0.46875, 0, 0, 0.46875, 1806.1, 563.75)" opacity="1">
<path style="fill:#8C00FF;fill-opacity:1" d="M6.95 -21.4L7.5 -16.35L7.5 0L2.75 0L2.75 -25.95L7.5 -25.95L7.5 -22Q7.15 -21.75 6.95 -21.4M14.6 -21.65L14.2 -21.65L13.7 -21.65Q10.8 -21.65 9.15 -20.2Q7.55 -18.8 7.5 -16.35L7.5 -22Q8.55 -23.95 10.2 -25.05Q12.2 -26.4 14.6 -26.4L14.6 -21.65" />
</g>
<g id="PathID_138" transform="matrix(0.46875, 0, 0, 0.46875, 1806.1, 563.75)" opacity="1">
</g>
<filter id="filter12" x="-0.521857" y="-0.521857" width="2.22371" height="2.31641" >
<feComponentTransfer in="SourceGraphic">
	<feFuncR type="linear" slope="0"/>
	<feFuncG type="linear" slope="0"/>
	<feFuncB type="linear" slope="0"/>
</feComponentTransfer>
<feGaussianBlur stdDeviation="0.6 0.6" />
<feOffset dx="-7.82359" dy="10.3823"/>
<feComponentTransfer result="10">
	<feFuncR type="linear" Ue="0" intercept="0.243137"/>
	<feFuncG type="linear" Ue="0" intercept="0.101961"/>
	<feFuncB type="linear" Ue="0" intercept="0.352941"/>
	<feFuncA type="linear" xh="0" slope="0.148438"/>
</feComponentTransfer>
<feComposite result="11"  in="SourceGraphic" in2="10" operator="over"/>
</filter>
<g style="filter:url(#filter12);">
<g id="PathID_139" transform="matrix(1.4773, 0, 0, 1.4773, 5.75, 83.5)" opacity="1">
<path style="fill:#6000A6;fill-opacity:1" d="M42.1 -40.3L29.05 -39.15L20.8 -12.95L11.85 -39.4L2.8 -38.9L15.55 0.65L26.05 2.9L42.1 -40.3M44.7 -42.05L45.6 -41.2L28.1 5.8L15.35 3.05L14.5 2.25L14.2 2.2L0.4 -40.6L13.1 -41.25L13.2 -40.85L14 -40.05L20.95 -19.5L27.65 -40.85L44.85 -42.35L44.7 -42.05" />
</g>
<g id="PathID_140" transform="matrix(1.4773, 0, 0, 1.4773, 5.75, 83.5)" opacity="1">
</g>
<g id="PathID_141" transform="matrix(1.4773, 0, 0, 1.4773, 72.4, 83.5)" opacity="1">
<path style="fill:#6000A6;fill-opacity:1" d="M9 -0.25L12.8 -39.95L2.9 -40.55L3.25 1.05L9 -0.25M1.7 3.2L1.45 3.3L1.1 -42.4L14.7 -41.65L14.65 -41.35L15.6 -40.45L11.55 2.1L2.65 4.1L1.7 3.2" />
</g>
<g id="PathID_142" transform="matrix(1.4773, 0, 0, 1.4773, 72.4, 83.5)" opacity="1">
</g>
<g id="PathID_143" transform="matrix(1.4773, 0, 0, 1.4773, 95.85, 83.5)" opacity="1">
<path style="fill:#6000A6;fill-opacity:1" d="M31.45 -8.35L10.1 -7.6L9.55 -24.4L31.05 -26.95L31.45 -8.35M43.95 -26.95Q45.15 -41.65 33.05 -42.1L4.85 -39.55L3.8 0.45L33.1 1.1Q43 0.3 43.05 -11.1L43.95 -26.95M2.3 2.2L1.95 2.2L3.1 -41.2L32.95 -43.9Q40.1 -43.6 43.35 -39.15Q46.7 -35.5 46.7 -28.4L46.65 -27.15L46.6 -25.85L45.7 -9.95Q45.55 2.75 34.25 3.75L3.15 3.05L2.3 2.2M12.65 -9.45L29.6 -10.05L29.3 -23.9L12.25 -21.9L12.65 -9.45" />
</g>
<g id="PathID_144" transform="matrix(1.4773, 0, 0, 1.4773, 95.85, 83.5)" opacity="1">
</g>
<g id="PathID_145" transform="matrix(1.4773, 0, 0, 1.4773, 192.45, 83.5)" opacity="1">
<path style="fill:#6000A6;fill-opacity:1" d="M32.25 -24.75L34.85 -41.95L5.7 -38.55L3.2 0.4L11.5 0.8L12.45 -13.75L32.05 -13.15L34 -18.25L9.1 -19.5L8.9 -23.4L32.25 -24.75M1.6 2.05L1.3 2.05L4 -40.15L37 -44L36.95 -43.7L37.8 -42.85L34.7 -22.15L14.45 -20.95L36.6 -19.95L36.5 -19.7L37.4 -18.75L34.2 -10.4L15.05 -11.05L14.05 3.55L2.5 2.95L1.6 2.05" />
</g>
<g id="PathID_146" transform="matrix(1.4773, 0, 0, 1.4773, 192.45, 83.5)" opacity="1">
</g>
<g id="PathID_147" transform="matrix(1.4773, 0, 0, 1.4773, 248.25, 83.5)" opacity="1">
<path style="fill:#6000A6;fill-opacity:1" d="M26.75 -24.7Q28.75 -24.85 28.8 -22.1Q28.9 -19.3 26.7 -19.55L9.6 -19.3Q8.9 -24.75 13 -25L26.75 -24.7M27.35 -40.55L16.6 -40.2Q2.9 -40.3 3.15 -27.05L4.5 -13.25Q3.8 0.25 18.3 0L36.8 0.35L37.65 -9.7L17.45 -8.55Q14.8 -9 14.65 -13.55L26.5 -12.85Q40.55 -13.6 40.6 -25.65Q40.65 -39.5 27.85 -40.55L27.35 -40.55M39.55 -36.6Q43.25 -32.5 43.25 -24.75L43.25 -24.6Q43.2 -14.25 34 -11.25L39.6 -11.6L39.55 -11.3L40.45 -10.4L39.3 3.05L19.3 2.7L18.85 2.7Q11.2 2.7 7.35 -0.9Q2.65 -4.4 2.65 -12.05L2.65 -12.6L2.7 -13.1L1.35 -26.9L1.35 -27.5Q1.35 -42 16.45 -42L16.55 -42L27.3 -42.3L27.95 -42.3Q35.95 -41.65 39.55 -36.6M12.3 -21.05L26.7 -21.35L27.05 -21.35L27 -21.9L27 -22.05L14.1 -22.35L13.95 -22.35Q12.65 -22.2 12.3 -21.05M17.55 -10.55L17.65 -10.3L17.7 -10.3L21.45 -10.5L17.5 -10.8L17.55 -10.55" />
</g>
<g id="PathID_148" transform="matrix(1.4773, 0, 0, 1.4773, 248.25, 83.5)" opacity="1">
</g>
<g id="PathID_149" transform="matrix(1.4773, 0, 0, 1.4773, 313.3, 83.5)" opacity="1">
<path style="fill:#6000A6;fill-opacity:1" d="M26.75 -24.7Q28.75 -24.85 28.8 -22.1Q28.9 -19.3 26.7 -19.55L9.6 -19.3Q8.9 -24.75 13 -25L26.75 -24.7M27.35 -40.55L16.6 -40.2Q2.9 -40.3 3.15 -27.05L4.5 -13.25Q3.8 0.25 18.3 0L36.8 0.35L37.65 -9.7L17.45 -8.55Q14.8 -9 14.65 -13.55L26.5 -12.85Q40.55 -13.6 40.6 -25.65Q40.65 -39.5 27.85 -40.55L27.35 -40.55M39.55 -36.6Q43.25 -32.5 43.25 -24.75L43.25 -24.6Q43.2 -14.25 34 -11.25L39.6 -11.6L39.55 -11.3L40.45 -10.4L39.3 3.05L19.3 2.7L18.85 2.7Q11.2 2.7 7.35 -0.9Q2.65 -4.4 2.65 -12.05L2.65 -12.6L2.7 -13.1L1.35 -26.9L1.35 -27.5Q1.35 -42 16.45 -42L16.55 -42L27.3 -42.3L27.95 -42.3Q35.95 -41.65 39.55 -36.6M12.3 -21.05L26.7 -21.35L27.05 -21.35L27 -21.9L27 -22.05L14.1 -22.35L13.95 -22.35Q12.65 -22.2 12.3 -21.05M17.55 -10.55L17.65 -10.3L17.7 -10.3L21.45 -10.5L17.5 -10.8L17.55 -10.55" />
</g>
<g id="PathID_150" transform="matrix(1.4773, 0, 0, 1.4773, 313.3, 83.5)" opacity="1">
</g>
<g id="PathID_151" transform="matrix(1.4773, 0, 0, 1.4773, 378.4, 83.5)" opacity="1">
<path style="fill:#6000A6;fill-opacity:1" d="M31.45 -8.35L10.1 -7.6L9.55 -24.4L31.05 -26.95L31.45 -8.35M43.95 -26.95Q45.15 -41.65 33.05 -42.1L4.85 -39.55L3.8 0.45L33.1 1.1Q43 0.3 43.05 -11.1L43.95 -26.95M2.3 2.2L1.95 2.2L3.1 -41.2L32.95 -43.9Q40.1 -43.6 43.35 -39.15Q46.7 -35.5 46.7 -28.4L46.65 -27.15L46.6 -25.85L45.7 -9.95Q45.55 2.75 34.25 3.75L3.15 3.05L2.3 2.2M12.65 -9.45L29.6 -10.05L29.3 -23.9L12.25 -21.9L12.65 -9.45" />
</g>
<g id="PathID_152" transform="matrix(1.4773, 0, 0, 1.4773, 378.4, 83.5)" opacity="1">
</g>
<g id="PathID_153" transform="matrix(1.4773, 0, 0, 1.4773, 449.3, 83.5)" opacity="1">
<path style="fill:#6000A6;fill-opacity:1" d="M38.4 -10.6Q38.3 -20.2 27.25 -19.95L15.2 -19.6Q13.25 -19.45 13.3 -22.1Q13.4 -24.8 15.65 -25.1L37.45 -23.2L38 -41.45L15.45 -40.15Q4.5 -39.05 3.3 -26.45Q2.6 -13.9 15.8 -14.1L27.4 -13.7Q30.45 -13.75 30.4 -10.75Q30.3 -7.7 27.55 -7.95L5.25 -9.5L4.35 0.85L25.5 0.85Q37.85 1 38.15 -8.15L38.4 -10.6M33.25 -20.95Q36.6 -19.9 38.4 -17.35Q41.05 -14.5 41.05 -9.45L40.85 -7.1L40.85 -7Q40.35 3.5 26.95 3.5L3.55 3.5L2.7 2.65L2.4 2.65L3.6 -11.4L27.55 -9.75L27.95 -9.75Q28.5 -9.75 28.6 -10.8L28.6 -10.9L28.6 -11.05L28.4 -11.05L16.75 -11.45L16.35 -11.45Q9.3 -11.45 5.9 -14.75Q1.45 -17.9 1.45 -25.2L1.45 -25.9L1.45 -26.25L1.5 -26.6Q2.8 -40.65 15.3 -41.95L39.85 -43.35L39.85 -43.05L40.75 -42.15L40.05 -20.4L33.25 -20.95M15.95 -21.4L25.05 -21.7L16.7 -22.4Q16.05 -22.25 15.95 -21.4" />
</g>
<g id="PathID_154" transform="matrix(1.4773, 0, 0, 1.4773, 449.3, 83.5)" opacity="1">
</g>
</g>
<g id="PathID_155" transform="matrix(0.412871, -0.00257747, 0.00257747, 0.412871, 791.5, 343.6)" opacity="1">
<path style="fill:#8C00FF;fill-opacity:1" d="M33.25 0.55L33.95 -9.5L12.45 -7.1L16.75 -40.05L2.4 -40.55L3.15 2.3L33.25 0.55M15.55 -9.2L35.9 -11.5L35.85 -11.2L36.8 -10.3L35.8 3.1L2.6 5.05L1.65 4.1L1.4 4.15L0.55 -42.35L18.8 -41.8L18.75 -41.5L19.7 -40.65L15.55 -9.2" />
</g>
<g id="PathID_156" transform="matrix(0.412871, -0.00257747, 0.00257747, 0.412871, 791.5, 343.6)" opacity="1">
</g>
<g id="PathID_157" transform="matrix(0.412871, -0.00257747, 0.00257747, 0.412871, 807.1, 343.5)" opacity="1">
<path style="fill:#8C00FF;fill-opacity:1" d="M9 -0.25L12.8 -39.95L2.9 -40.55L3.25 1.05L9 -0.25M1.7 3.2L1.45 3.3L1.1 -42.4L14.7 -41.65L14.65 -41.35L15.6 -40.45L11.55 2.1L2.65 4.1L1.7 3.2" />
</g>
<g id="PathID_158" transform="matrix(0.412871, -0.00257747, 0.00257747, 0.412871, 807.1, 343.5)" opacity="1">
</g>
<g id="PathID_159" transform="matrix(0.412871, -0.00257747, 0.00257747, 0.412871, 814.55, 343.45)" opacity="1">
<path style="fill:#8C00FF;fill-opacity:1" d="M41.15 0.1L25.75 -21.15L43.35 -40.6L30.75 -42.25L17.35 -23.05L16.6 -41.05L0.9 -39L6.45 0.65L12.65 0.85L12 -7.95L20.55 -13.95L28.4 2.2L41.15 0.1M19.25 -41.9L19.7 -29.45L30 -44.15L47.05 -41.9L46.8 -41.7L47.75 -40.8L28.85 -20L45.1 2.3L28.5 5.05L27.55 4.1L27.35 4.15L20.4 -10.1L14.7 -6.1L15.5 3.55L6 3.25L5.15 2.4L4.85 2.4L-1.1 -40.6L18.35 -43.1L18.35 -42.8L19.25 -41.9" />
</g>
<g id="PathID_160" transform="matrix(0.412871, -0.00257747, 0.00257747, 0.412871, 814.55, 343.45)" opacity="1">
</g>
<g id="PathID_161" transform="matrix(0.412871, -0.00257747, 0.00257747, 0.412871, 834.75, 343.35)" opacity="1">
<path style="fill:#8C00FF;fill-opacity:1" d="M26.75 -24.7Q28.75 -24.85 28.8 -22.1Q28.9 -19.3 26.7 -19.55L9.6 -19.3Q8.9 -24.75 13 -25L26.75 -24.7M27.35 -40.55L16.6 -40.2Q2.9 -40.3 3.15 -27.05L4.5 -13.25Q3.8 0.25 18.3 0L36.8 0.35L37.65 -9.7L17.45 -8.55Q14.8 -9 14.65 -13.55L26.5 -12.85Q40.55 -13.6 40.6 -25.65Q40.65 -39.5 27.85 -40.55L27.35 -40.55M39.55 -36.6Q43.25 -32.5 43.25 -24.75L43.25 -24.6Q43.2 -14.25 34 -11.25L39.6 -11.6L39.55 -11.3L40.45 -10.4L39.3 3.05L19.3 2.7L18.85 2.7Q11.2 2.7 7.35 -0.9Q2.65 -4.4 2.65 -12.05L2.65 -12.6L2.7 -13.1L1.35 -26.9L1.35 -27.5Q1.35 -42 16.45 -42L16.55 -42L27.3 -42.3L27.95 -42.3Q35.95 -41.65 39.55 -36.6M12.3 -21.05L26.7 -21.35L27.05 -21.35L27 -21.9L27 -22.05L14.1 -22.35L13.95 -22.35Q12.65 -22.2 12.3 -21.05M17.55 -10.55L17.65 -10.3L17.7 -10.3L21.45 -10.5L17.5 -10.8L17.55 -10.55" />
</g>
<g id="PathID_162" transform="matrix(0.412871, -0.00257747, 0.00257747, 0.412871, 834.75, 343.35)" opacity="1">
</g>
<g id="PathID_163" transform="matrix(0.412871, -0.00257747, 0.00257747, 0.412871, 861.85, 343.15)" opacity="1">
<path style="fill:#8C00FF;fill-opacity:1" d="M31.5 -15.1Q33.3 -14.75 33.3 -12.05Q33.4 -9.35 31.55 -9.5L17.1 -9.8Q14.3 -9.65 14.45 -12.55Q14.65 -15.55 16.5 -15.6L31.5 -15.1M29.3 -21.25L16.75 -21.75Q3.8 -21.55 3.1 -12.45Q2.7 -0.65 15.9 0.45L26.65 1.2Q31 0.75 32.75 -2.95Q34.65 0.5 41.05 -0.3Q39.25 -1.15 39.6 -5.25L40.25 -24.65Q39.7 -39.7 26.2 -39.25L5.65 -38.15L5.4 -23.6L30.15 -24.95Q35.25 -24.6 33.6 -18.35Q32.3 -21.15 29.3 -21.25M5.9 -20.85L4.75 -20.8L3.8 -21.7L3.55 -21.7L3.9 -39.85L26.15 -41.05L26.95 -41.05Q35 -41.05 38.8 -35.85Q42.6 -31.75 42.95 -23.65L42.25 -4.05L42.2 -3.45L42.2 -2.95Q42.2 -2.55 42.3 -2.35Q43.75 -0.95 47.35 0.75L46.95 0.8L47.8 1.65L42.55 2.3Q40.6 2.55 39.85 2.55Q36 2.55 33.95 0.85Q31.7 3.5 27.75 3.85L16.75 3.1Q9.6 2.5 6.1 -0.8Q1.3 -4.35 1.3 -11.8L1.3 -12.5Q1.75 -18.1 5.9 -20.85M31.5 -12.4L17.5 -12.95Q17.2 -12.8 17.15 -11.6L31.55 -11.3L31.5 -11.85L31.5 -12.05L31.5 -12.4M31.85 -22.5L31.8 -22.6L31.8 -22.5L31.85 -22.5" />
</g>
<g id="PathID_164" transform="matrix(0.412871, -0.00257747, 0.00257747, 0.412871, 861.85, 343.15)" opacity="1">
</g>
<g id="PathID_165" transform="matrix(0.412871, -0.00257747, 0.00257747, 0.412871, 888.8, 343)" opacity="1">
<path style="fill:#8C00FF;fill-opacity:1" d="M42.1 -40.3L29.05 -39.15L20.8 -12.95L11.85 -39.4L2.8 -38.9L15.55 0.65L26.05 2.9L42.1 -40.3M44.7 -42.05L45.6 -41.2L28.1 5.8L15.35 3.05L14.5 2.25L14.2 2.2L0.4 -40.6L13.1 -41.25L13.2 -40.85L14 -40.05L20.95 -19.5L27.65 -40.85L44.85 -42.35L44.7 -42.05" />
</g>
<g id="PathID_166" transform="matrix(0.412871, -0.00257747, 0.00257747, 0.412871, 888.8, 343)" opacity="1">
</g>
<g id="PathID_167" transform="matrix(0.412871, -0.00257747, 0.00257747, 0.412871, 908.3, 342.9)" opacity="1">
<path style="fill:#8C00FF;fill-opacity:1" d="M9 -0.25L12.8 -39.95L2.9 -40.55L3.25 1.05L9 -0.25M1.7 3.2L1.45 3.3L1.1 -42.4L14.7 -41.65L14.65 -41.35L15.6 -40.45L11.55 2.1L2.65 4.1L1.7 3.2" />
</g>
<g id="PathID_168" transform="matrix(0.412871, -0.00257747, 0.00257747, 0.412871, 908.3, 342.9)" opacity="1">
</g>
<g id="PathID_169" transform="matrix(0.412871, -0.00257747, 0.00257747, 0.412871, 915.75, 342.85)" opacity="1">
<path style="fill:#8C00FF;fill-opacity:1" d="M31.45 -8.35L10.1 -7.6L9.55 -24.4L31.05 -26.95L31.45 -8.35M43.95 -26.95Q45.15 -41.65 33.05 -42.1L4.85 -39.55L3.8 0.45L33.1 1.1Q43 0.3 43.05 -11.1L43.95 -26.95M2.3 2.2L1.95 2.2L3.1 -41.2L32.95 -43.9Q40.1 -43.6 43.35 -39.15Q46.7 -35.5 46.7 -28.4L46.65 -27.15L46.6 -25.85L45.7 -9.95Q45.55 2.75 34.25 3.75L3.15 3.05L2.3 2.2M12.65 -9.45L29.6 -10.05L29.3 -23.9L12.25 -21.9L12.65 -9.45" />
</g>
<g id="PathID_170" transform="matrix(0.412871, -0.00257747, 0.00257747, 0.412871, 915.75, 342.85)" opacity="1">
</g>
<g id="PathID_171" transform="matrix(0.412871, -0.00257747, 0.00257747, 0.412871, 936.45, 342.7)" opacity="1">
<path style="fill:#8C00FF;fill-opacity:1" d="M9 -0.25L12.8 -39.95L2.9 -40.55L3.25 1.05L9 -0.25M1.7 3.2L1.45 3.3L1.1 -42.4L14.7 -41.65L14.65 -41.35L15.6 -40.45L11.55 2.1L2.65 4.1L1.7 3.2" />
</g>
<g id="PathID_172" transform="matrix(0.412871, -0.00257747, 0.00257747, 0.412871, 936.45, 342.7)" opacity="1">
</g>
<g id="PathID_173" transform="matrix(0.412871, -0.00257747, 0.00257747, 0.412871, 943.9, 342.65)" opacity="1">
<path style="fill:#8C00FF;fill-opacity:1" d="M31.45 -8.35L10.1 -7.6L9.55 -24.4L31.05 -26.95L31.45 -8.35M43.95 -26.95Q45.15 -41.65 33.05 -42.1L4.85 -39.55L3.8 0.45L33.1 1.1Q43 0.3 43.05 -11.1L43.95 -26.95M2.3 2.2L1.95 2.2L3.1 -41.2L32.95 -43.9Q40.1 -43.6 43.35 -39.15Q46.7 -35.5 46.7 -28.4L46.65 -27.15L46.6 -25.85L45.7 -9.95Q45.55 2.75 34.25 3.75L3.15 3.05L2.3 2.2M12.65 -9.45L29.6 -10.05L29.3 -23.9L12.25 -21.9L12.65 -9.45" />
</g>
<g id="PathID_174" transform="matrix(0.412871, -0.00257747, 0.00257747, 0.412871, 943.9, 342.65)" opacity="1">
</g>
<g id="PathID_175" transform="matrix(0.412871, -0.00257747, 0.00257747, 0.412871, 964.6, 342.55)" opacity="1">
<path style="fill:#8C00FF;fill-opacity:1" d="M29.8 -7.6L8.95 -7.5L9.35 -24.35L28.35 -25.7L29.8 -7.6M41.85 -26.6Q42.6 -39.4 31.65 -40.35L13.75 -40.3Q9.1 -39.75 6.25 -36Q3.45 -32.3 2.7 -27.35L3.55 -11.8Q6 0.8 14.85 0.55L31 1.45Q41 0.4 41 -11.1L41.85 -26.6M8.1 0.35Q3.45 -3 1.75 -11.75L0.9 -27.5Q1.3 -30.3 2.3 -32.65Q3.3 -35 4.85 -37.1Q6.5 -39.3 8.65 -40.55Q10.8 -41.8 13.55 -42.1L31.8 -42.15Q38.4 -41.55 41.3 -37.4Q44.55 -33.85 44.55 -27.2L44.55 -26.35L44.5 -25.45L44.5 -25.4L43.65 -9.95Q43.55 2.9 32.1 4.1L15.8 3.2L15.6 3.2Q11.15 3.2 8.1 0.35M11.65 -9.3L27.9 -9.4L26.7 -22.8L11.95 -21.8L11.65 -9.3" />
</g>
<g id="PathID_176" transform="matrix(0.412871, -0.00257747, 0.00257747, 0.412871, 964.6, 342.55)" opacity="1">
</g>
<g id="PathID_177" transform="matrix(0.412871, -0.00257747, 0.00257747, 0.412871, 984.5, 342.4)" opacity="1">
<path style="fill:#8C00FF;fill-opacity:1" d="M34 -25.3L35.05 -41.7L1.5 -39.75L3.3 -25.05L13.25 -25.6L14.6 1.05L22.75 0.5L22.9 -24.75L34 -25.3M1.95 -23.15L1.7 -23.15L-0.5 -41.45L36.95 -43.6L36.9 -43.3L37.8 -42.4L36.6 -22.7L25.6 -22.15L25.4 3.05L14.1 3.8L13.2 2.9L12.95 2.95L11.6 -22.75L2.9 -22.3L1.95 -23.15" />
</g>
<g id="PathID_178" transform="matrix(0.412871, -0.00257747, 0.00257747, 0.412871, 984.5, 342.4)" opacity="1">
</g>
<g id="PathID_179" transform="matrix(0.412871, -0.00257747, 0.00257747, 0.412871, 1001.55, 342.3)" opacity="1">
<path style="fill:#8C00FF;fill-opacity:1" d="M9 -0.25L12.8 -39.95L2.9 -40.55L3.25 1.05L9 -0.25M1.7 3.2L1.45 3.3L1.1 -42.4L14.7 -41.65L14.65 -41.35L15.6 -40.45L11.55 2.1L2.65 4.1L1.7 3.2" />
</g>
<g id="PathID_180" transform="matrix(0.412871, -0.00257747, 0.00257747, 0.412871, 1001.55, 342.3)" opacity="1">
</g>
<g id="PathID_181" transform="matrix(0.412871, -0.00257747, 0.00257747, 0.412871, 1009, 342.25)" opacity="1">
<path style="fill:#8C00FF;fill-opacity:1" d="M31.5 -15.1Q33.3 -14.75 33.3 -12.05Q33.4 -9.35 31.55 -9.5L17.1 -9.8Q14.3 -9.65 14.45 -12.55Q14.65 -15.55 16.5 -15.6L31.5 -15.1M29.3 -21.25L16.75 -21.75Q3.8 -21.55 3.1 -12.45Q2.7 -0.65 15.9 0.45L26.65 1.2Q31 0.75 32.75 -2.95Q34.65 0.5 41.05 -0.3Q39.25 -1.15 39.6 -5.25L40.25 -24.65Q39.7 -39.7 26.2 -39.25L5.65 -38.15L5.4 -23.6L30.15 -24.95Q35.25 -24.6 33.6 -18.35Q32.3 -21.15 29.3 -21.25M5.9 -20.85L4.75 -20.8L3.8 -21.7L3.55 -21.7L3.9 -39.85L26.15 -41.05L26.95 -41.05Q35 -41.05 38.8 -35.85Q42.6 -31.75 42.95 -23.65L42.25 -4.05L42.2 -3.45L42.2 -2.95Q42.2 -2.55 42.3 -2.35Q43.75 -0.95 47.35 0.75L46.95 0.8L47.8 1.65L42.55 2.3Q40.6 2.55 39.85 2.55Q36 2.55 33.95 0.85Q31.7 3.5 27.75 3.85L16.75 3.1Q9.6 2.5 6.1 -0.8Q1.3 -4.35 1.3 -11.8L1.3 -12.5Q1.75 -18.1 5.9 -20.85M31.5 -12.4L17.5 -12.95Q17.2 -12.8 17.15 -11.6L31.55 -11.3L31.5 -11.85L31.5 -12.05L31.5 -12.4M31.85 -22.5L31.8 -22.6L31.8 -22.5L31.85 -22.5" />
</g>
<g id="PathID_182" transform="matrix(0.412871, -0.00257747, 0.00257747, 0.412871, 1009, 342.25)" opacity="1">
</g>
<g id="PathID_183" transform="matrix(0.412871, -0.00257747, 0.00257747, 0.412871, 1027.9, 342.15)" opacity="1">
<path style="fill:#8C00FF;fill-opacity:1" d="M3.35 0.15L11.9 0.8L13.6 -25.35L30.75 -25.4L29.35 0.25L37.45 -0.1L39.05 -28.45Q39.1 -40 28 -40.25L17.4 -40.15Q13.4 -40.3 10.25 -35.35Q8.9 -39.75 1 -41.95L3.35 0.15M1.45 -43.7Q7.75 -41.9 10.4 -38.65Q13.45 -41.95 17.15 -41.95L17.4 -41.95L28 -42.05Q35.3 -41.9 38.5 -37.45Q41.7 -34.15 41.7 -27.55L41.7 -27.35L40 2.55L28.65 2.95L27.8 2.05L27.45 2.05L28.75 -22.75L16.15 -22.7L14.45 3.55L2.85 2.7L1.95 1.8L1.65 1.8L-0.8 -41.9L1.45 -43.7" />
</g>
<g id="PathID_184" transform="matrix(0.412871, -0.00257747, 0.00257747, 0.412871, 1027.9, 342.15)" opacity="1">
</g>
<g id="PathID_185" transform="matrix(1, 0, 0, 1, 1430.3, 528.5)" opacity="1">
<path style="fill:#8C00FF;fill-opacity:0.168627" d="M140.9 10Q140.9 14.1 138 17Q135.1 19.9 131 19.9L-131 19.9Q-135.1 19.9 -138 17Q-140.9 14.1 -140.9 10L-140.9 -10Q-140.9 -14.1 -138 -17Q-135.1 -19.9 -131 -19.9L131 -19.9Q135.1 -19.9 138 -17Q140.9 -14.1 140.9 -10L140.9 10" />
</g>
<g id="PathID_186" transform="matrix(1, 0, 0, 1, 1430.3, 528.5)" opacity="1">
<path style="fill:none;stroke-width:1;stroke-linecap:round;stroke-linejoin:round;stroke-miterlimit:3;stroke:#000000;stroke-opacity:1" d="M140.9 10Q140.9 14.1 138 17Q135.1 19.9 131 19.9L-131 19.9Q-135.1 19.9 -138 17Q-140.9 14.1 -140.9 10L-140.9 -10Q-140.9 -14.1 -138 -17Q-135.1 -19.9 -131 -19.9L131 -19.9Q135.1 -19.9 138 -17Q140.9 -14.1 140.9 -10L140.9 10z" />
</g>
<g id="PathID_187" transform="matrix(1, 0, 0, 1, 1430.3, 579.85)" opacity="1">
<path style="fill:#8C00FF;fill-opacity:0.168627" d="M140.9 10Q140.9 14.1 138 17Q135.1 19.9 131 19.9L-131 19.9Q-135.1 19.9 -138 17Q-140.9 14.1 -140.9 10L-140.9 -10Q-140.9 -14.1 -138 -17Q-135.1 -19.9 -131 -19.9L131 -19.9Q135.1 -19.9 138 -17Q140.9 -14.1 140.9 -10L140.9 10" />
</g>
<g id="PathID_188" transform="matrix(1, 0, 0, 1, 1430.3, 579.85)" opacity="1">
<path style="fill:none;stroke-width:1;stroke-linecap:round;stroke-linejoin:round;stroke-miterlimit:3;stroke:#000000;stroke-opacity:1" d="M140.9 10Q140.9 14.1 138 17Q135.1 19.9 131 19.9L-131 19.9Q-135.1 19.9 -138 17Q-140.9 14.1 -140.9 10L-140.9 -10Q-140.9 -14.1 -138 -17Q-135.1 -19.9 -131 -19.9L131 -19.9Q135.1 -19.9 138 -17Q140.9 -14.1 140.9 -10L140.9 10z" />
</g>
<g id="PathID_189" transform="matrix(1, 0, 0, 4.04442, 1428.95, 843.3)" opacity="1">
<path style="fill:#8C00FF;fill-opacity:0.168627" d="M140.9 10Q140.9 14.1 138 17Q135.1 19.9 131 19.9L-131 19.9Q-135.1 19.9 -138 17Q-140.9 14.1 -140.9 10L-140.9 -10Q-140.9 -14.1 -138 -17Q-135.1 -19.9 -131 -19.9L131 -19.9Q135.1 -19.9 138 -17Q140.9 -14.1 140.9 -10L140.9 10" />
</g>
<g id="PathID_190" transform="matrix(1, 0, 0, 4.04442, 1428.95, 843.3)" opacity="1">
<path style="fill:none;stroke-width:1;stroke-linecap:round;stroke-linejoin:round;stroke-miterlimit:3;stroke:#000000;stroke-opacity:1" d="M140.9 9.95Q140.9 14.1 138 17Q135.1 19.9 131 19.9L-131 19.9Q-135.1 19.9 -138 17Q-140.9 14.1 -140.9 9.95L-140.9 -9.95Q-140.9 -14.05 -138 -17Q-135.1 -19.85 -131 -19.85L131 -19.85Q135.1 -19.85 138 -17Q140.9 -14.05 140.9 -9.95L140.9 9.95z" />
</g>
<g id="PathID_191" transform="matrix(1, 0, 0, 1, 1428.95, 627.15)" opacity="1">
<path style="fill:#8C00FF;fill-opacity:0.168627" d="M140.9 10Q140.9 14.1 138 17Q135.1 19.9 131 19.9L-131 19.9Q-135.1 19.9 -138 17Q-140.9 14.1 -140.9 10L-140.9 -10Q-140.9 -14.1 -138 -17Q-135.1 -19.9 -131 -19.9L131 -19.9Q135.1 -19.9 138 -17Q140.9 -14.1 140.9 -10L140.9 10" />
</g>
<g id="PathID_192" transform="matrix(1, 0, 0, 1, 1428.95, 627.15)" opacity="1">
<path style="fill:none;stroke-width:1;stroke-linecap:round;stroke-linejoin:round;stroke-miterlimit:3;stroke:#000000;stroke-opacity:1" d="M140.9 10Q140.9 14.1 138 17Q135.1 19.9 131 19.9L-131 19.9Q-135.1 19.9 -138 17Q-140.9 14.1 -140.9 10L-140.9 -10Q-140.9 -14.1 -138 -17Q-135.1 -19.9 -131 -19.9L131 -19.9Q135.1 -19.9 138 -17Q140.9 -14.1 140.9 -10L140.9 10z" />
</g>
<g id="PathID_193" transform="matrix(0.436198, 0, 0, 0.436198, 1302.8, 532.85)" opacity="1">
<path style="fill:#000000;fill-opacity:1" d="M3.4 10.2L3.4 -26.55L7.5 -26.55L7.5 -23.05Q8.95 -25.1 10.75 -26.1Q12.6 -27.15 15.2 -27.15Q18.6 -27.15 21.2 -25.4Q23.8 -23.65 25.1 -20.45Q26.45 -17.25 26.45 -13.45Q26.45 -9.4 24.95 -6.1Q23.5 -2.85 20.7 -1.1Q17.95 0.6 14.85 0.6Q12.6 0.6 10.8 -0.35Q9.05 -1.3 7.9 -2.75L7.9 10.2L3.4 10.2M7.45 -13.1Q7.45 -7.95 9.5 -5.5Q11.55 -3.1 14.5 -3.1Q17.5 -3.1 19.65 -5.6Q21.8 -8.15 21.8 -13.45Q21.8 -18.55 19.7 -21.05Q17.6 -23.6 14.7 -23.6Q11.85 -23.6 9.65 -20.9Q7.45 -18.2 7.45 -13.1" />
</g>
<g id="PathID_194" transform="matrix(0.436198, 0, 0, 0.436198, 1302.8, 532.85)" opacity="1">
</g>
<g id="PathID_195" transform="matrix(0.436198, 0, 0, 0.436198, 1315.2, 532.85)" opacity="1">
<path style="fill:#000000;fill-opacity:1" d="M20.7 -3.35Q18.2 -1.15 15.85 -0.25Q13.55 0.6 10.9 0.6Q6.55 0.6 4.2 -1.5Q1.85 -3.65 1.85 -7Q1.85 -8.95 2.7 -10.55Q3.6 -12.15 5.05 -13.1Q6.5 -14.1 8.3 -14.6Q9.6 -14.95 12.3 -15.3Q17.75 -15.95 20.3 -16.85L20.35 -18Q20.35 -20.75 19.05 -21.85Q17.35 -23.4 13.95 -23.4Q10.75 -23.4 9.25 -22.25Q7.75 -21.15 7.05 -18.35L2.65 -18.95Q3.25 -21.75 4.6 -23.5Q6 -25.25 8.6 -26.2Q11.2 -27.15 14.6 -27.15Q18 -27.15 20.1 -26.3Q22.25 -25.5 23.25 -24.3Q24.25 -23.1 24.65 -21.25Q24.9 -20.1 24.9 -17.1L24.9 -11.1Q24.9 -4.85 25.15 -3.15Q25.45 -1.5 26.3 0L21.6 0Q20.9 -1.4 20.7 -3.35M20.3 -13.3Q17.85 -12.3 12.95 -11.6Q10.15 -11.2 9 -10.7Q7.85 -10.2 7.25 -9.2Q6.65 -8.25 6.65 -7.1Q6.65 -5.3 8 -4.1Q9.35 -2.95 12 -2.95Q14.6 -2.95 16.6 -4.05Q18.65 -5.2 19.6 -7.15Q20.3 -8.65 20.3 -11.65L20.3 -13.3" />
</g>
<g id="PathID_196" transform="matrix(0.436198, 0, 0, 0.436198, 1315.2, 532.85)" opacity="1">
</g>
<g id="PathID_197" transform="matrix(0.436198, 0, 0, 0.436198, 1327.65, 532.85)" opacity="1">
<path style="fill:#000000;fill-opacity:1" d="M1.6 -7.95L6.05 -8.65Q6.4 -5.95 8.1 -4.5Q9.8 -3.1 12.9 -3.1Q16 -3.1 17.5 -4.35Q19 -5.6 19 -7.3Q19 -8.85 17.65 -9.7Q16.75 -10.3 13.1 -11.25Q8.15 -12.5 6.2 -13.4Q4.3 -14.3 3.3 -15.9Q2.35 -17.55 2.35 -19.5Q2.35 -21.25 3.15 -22.75Q3.95 -24.3 5.35 -25.3Q6.4 -26.05 8.2 -26.6Q10.05 -27.15 12.1 -27.15Q15.25 -27.15 17.6 -26.25Q19.95 -25.35 21.05 -23.8Q22.2 -22.25 22.65 -19.7L18.25 -19.1Q17.95 -21.15 16.5 -22.3Q15.05 -23.45 12.45 -23.45Q9.35 -23.45 8 -22.4Q6.7 -21.4 6.7 -20Q6.7 -19.15 7.25 -18.45Q7.8 -17.7 8.95 -17.25L12.95 -16.1Q17.7 -14.8 19.6 -14Q21.5 -13.2 22.55 -11.65Q23.65 -10.1 23.65 -7.8Q23.65 -5.55 22.3 -3.55Q21 -1.55 18.5 -0.45Q16.05 0.6 12.95 0.6Q7.75 0.6 5.05 -1.55Q2.35 -3.7 1.6 -7.95" />
</g>
<g id="PathID_198" transform="matrix(0.436198, 0, 0, 0.436198, 1327.65, 532.85)" opacity="1">
</g>
<g id="PathID_199" transform="matrix(0.436198, 0, 0, 0.436198, 1338.8, 532.85)" opacity="1">
<path style="fill:#000000;fill-opacity:1" d="M1.6 -7.95L6.05 -8.65Q6.4 -5.95 8.1 -4.5Q9.8 -3.1 12.9 -3.1Q16 -3.1 17.5 -4.35Q19 -5.6 19 -7.3Q19 -8.85 17.65 -9.7Q16.75 -10.3 13.1 -11.25Q8.15 -12.5 6.2 -13.4Q4.3 -14.3 3.3 -15.9Q2.35 -17.55 2.35 -19.5Q2.35 -21.25 3.15 -22.75Q3.95 -24.3 5.35 -25.3Q6.4 -26.05 8.2 -26.6Q10.05 -27.15 12.1 -27.15Q15.25 -27.15 17.6 -26.25Q19.95 -25.35 21.05 -23.8Q22.2 -22.25 22.65 -19.7L18.25 -19.1Q17.95 -21.15 16.5 -22.3Q15.05 -23.45 12.45 -23.45Q9.35 -23.45 8 -22.4Q6.7 -21.4 6.7 -20Q6.7 -19.15 7.25 -18.45Q7.8 -17.7 8.95 -17.25L12.95 -16.1Q17.7 -14.8 19.6 -14Q21.5 -13.2 22.55 -11.65Q23.65 -10.1 23.65 -7.8Q23.65 -5.55 22.3 -3.55Q21 -1.55 18.5 -0.45Q16.05 0.6 12.95 0.6Q7.75 0.6 5.05 -1.55Q2.35 -3.7 1.6 -7.95" />
</g>
<g id="PathID_200" transform="matrix(0.436198, 0, 0, 0.436198, 1338.8, 532.85)" opacity="1">
</g>
<g id="PathID_201" transform="matrix(0.436198, 0, 0, 0.436198, 1349.95, 532.85)" opacity="1">
<path style="fill:#000000;fill-opacity:1" d="M8.2 0L0.1 -26.55L4.8 -26.55L9 -11.2L10.55 -5.5L11.95 -11L16.15 -26.55L20.75 -26.55L24.8 -11.15L26.1 -6.05L27.65 -11.15L32.2 -26.55L36.6 -26.55L28.2 0L23.6 0L19.35 -15.9L18.3 -20.4L12.9 0L8.2 0" />
</g>
<g id="PathID_202" transform="matrix(0.436198, 0, 0, 0.436198, 1349.95, 532.85)" opacity="1">
</g>
<g id="PathID_203" transform="matrix(0.436198, 0, 0, 0.436198, 1366.05, 532.85)" opacity="1">
<path style="fill:#000000;fill-opacity:1" d="M1.7 -13.25Q1.7 -20.65 5.8 -24.2Q9.2 -27.15 14.15 -27.15Q19.6 -27.15 23.1 -23.55Q26.6 -19.95 26.6 -13.65Q26.6 -8.5 25.05 -5.55Q23.5 -2.65 20.55 -1Q17.6 0.6 14.15 0.6Q8.55 0.6 5.1 -2.95Q1.7 -6.55 1.7 -13.25M6.35 -13.25Q6.35 -8.15 8.55 -5.6Q10.75 -3.1 14.15 -3.1Q17.5 -3.1 19.7 -5.6Q21.95 -8.15 21.95 -13.4Q21.95 -18.3 19.7 -20.85Q17.45 -23.4 14.15 -23.4Q10.75 -23.4 8.55 -20.85Q6.35 -18.35 6.35 -13.25" />
</g>
<g id="PathID_204" transform="matrix(0.436198, 0, 0, 0.436198, 1366.05, 532.85)" opacity="1">
</g>
<g id="PathID_205" transform="matrix(0.436198, 0, 0, 0.436198, 1378.5, 532.85)" opacity="1">
<path style="fill:#000000;fill-opacity:1" d="M3.35 0L3.35 -26.55L7.4 -26.55L7.4 -22.5Q8.9 -25.35 10.2 -26.25Q11.55 -27.15 13.1 -27.15Q15.4 -27.15 17.75 -25.7L16.15 -21.5Q14.55 -22.5 12.9 -22.5Q11.4 -22.5 10.2 -21.6Q9.05 -20.7 8.55 -19.15Q7.85 -16.75 7.85 -13.9L7.85 0L3.35 0" />
</g>
<g id="PathID_206" transform="matrix(0.436198, 0, 0, 0.436198, 1378.5, 532.85)" opacity="1">
</g>
<g id="PathID_207" transform="matrix(0.436198, 0, 0, 0.436198, 1385.9, 532.85)" opacity="1">
<path style="fill:#000000;fill-opacity:1" d="M20.55 0L20.55 -3.35Q18 0.6 13.1 0.6Q9.95 0.6 7.25 -1.15Q4.6 -2.9 3.15 -6Q1.7 -9.15 1.7 -13.25Q1.7 -17.2 3 -20.45Q4.35 -23.7 7 -25.4Q9.65 -27.15 12.9 -27.15Q15.3 -27.15 17.15 -26.1Q19.05 -25.1 20.25 -23.45L20.25 -36.65L24.75 -36.65L24.75 0L20.55 0M6.35 -13.2Q6.35 -8.1 8.5 -5.6Q10.65 -3.1 13.6 -3.1Q16.55 -3.1 18.6 -5.5Q20.7 -7.9 20.7 -12.85Q20.7 -18.3 18.55 -20.85Q16.45 -23.4 13.35 -23.4Q10.35 -23.4 8.35 -20.95Q6.35 -18.5 6.35 -13.2" />
</g>
<g id="PathID_208" transform="matrix(0.436198, 0, 0, 0.436198, 1385.9, 532.85)" opacity="1">
</g>
<g id="PathID_209" transform="matrix(0.436198, 0, 0, 0.436198, 1306.85, 585.55)" opacity="1">
<path style="fill:#000000;fill-opacity:1" d="M3.4 10.2L3.4 -26.55L7.5 -26.55L7.5 -23.05Q8.95 -25.1 10.75 -26.1Q12.6 -27.15 15.2 -27.15Q18.6 -27.15 21.2 -25.4Q23.8 -23.65 25.1 -20.45Q26.45 -17.25 26.45 -13.45Q26.45 -9.4 24.95 -6.1Q23.5 -2.85 20.7 -1.1Q17.95 0.6 14.85 0.6Q12.6 0.6 10.8 -0.35Q9.05 -1.3 7.9 -2.75L7.9 10.2L3.4 10.2M7.45 -13.1Q7.45 -7.95 9.5 -5.5Q11.55 -3.1 14.5 -3.1Q17.5 -3.1 19.65 -5.6Q21.8 -8.15 21.8 -13.45Q21.8 -18.55 19.7 -21.05Q17.6 -23.6 14.7 -23.6Q11.85 -23.6 9.65 -20.9Q7.45 -18.2 7.45 -13.1" />
</g>
<g id="PathID_210" transform="matrix(0.436198, 0, 0, 0.436198, 1306.85, 585.55)" opacity="1">
</g>
<g id="PathID_211" transform="matrix(0.436198, 0, 0, 0.436198, 1319.25, 585.55)" opacity="1">
<path style="fill:#000000;fill-opacity:1" d="M20.7 -3.35Q18.2 -1.15 15.85 -0.25Q13.55 0.6 10.9 0.6Q6.55 0.6 4.2 -1.5Q1.85 -3.65 1.85 -7Q1.85 -8.95 2.7 -10.55Q3.6 -12.15 5.05 -13.1Q6.5 -14.1 8.3 -14.6Q9.6 -14.95 12.3 -15.3Q17.75 -15.95 20.3 -16.85L20.35 -18Q20.35 -20.75 19.05 -21.85Q17.35 -23.4 13.95 -23.4Q10.75 -23.4 9.25 -22.25Q7.75 -21.15 7.05 -18.35L2.65 -18.95Q3.25 -21.75 4.6 -23.5Q6 -25.25 8.6 -26.2Q11.2 -27.15 14.6 -27.15Q18 -27.15 20.1 -26.3Q22.25 -25.5 23.25 -24.3Q24.25 -23.1 24.65 -21.25Q24.9 -20.1 24.9 -17.1L24.9 -11.1Q24.9 -4.85 25.15 -3.15Q25.45 -1.5 26.3 0L21.6 0Q20.9 -1.4 20.7 -3.35M20.3 -13.3Q17.85 -12.3 12.95 -11.6Q10.15 -11.2 9 -10.7Q7.85 -10.2 7.25 -9.2Q6.65 -8.25 6.65 -7.1Q6.65 -5.3 8 -4.1Q9.35 -2.95 12 -2.95Q14.6 -2.95 16.6 -4.05Q18.65 -5.2 19.6 -7.15Q20.3 -8.65 20.3 -11.65L20.3 -13.3" />
</g>
<g id="PathID_212" transform="matrix(0.436198, 0, 0, 0.436198, 1319.25, 585.55)" opacity="1">
</g>
<g id="PathID_213" transform="matrix(0.436198, 0, 0, 0.436198, 1331.7, 585.55)" opacity="1">
<path style="fill:#000000;fill-opacity:1" d="M1.6 -7.95L6.05 -8.65Q6.4 -5.95 8.1 -4.5Q9.8 -3.1 12.9 -3.1Q16 -3.1 17.5 -4.35Q19 -5.6 19 -7.3Q19 -8.85 17.65 -9.7Q16.75 -10.3 13.1 -11.25Q8.15 -12.5 6.2 -13.4Q4.3 -14.3 3.3 -15.9Q2.35 -17.55 2.35 -19.5Q2.35 -21.25 3.15 -22.75Q3.95 -24.3 5.35 -25.3Q6.4 -26.05 8.2 -26.6Q10.05 -27.15 12.1 -27.15Q15.25 -27.15 17.6 -26.25Q19.95 -25.35 21.05 -23.8Q22.2 -22.25 22.65 -19.7L18.25 -19.1Q17.95 -21.15 16.5 -22.3Q15.05 -23.45 12.45 -23.45Q9.35 -23.45 8 -22.4Q6.7 -21.4 6.7 -20Q6.7 -19.15 7.25 -18.45Q7.8 -17.7 8.95 -17.25L12.95 -16.1Q17.7 -14.8 19.6 -14Q21.5 -13.2 22.55 -11.65Q23.65 -10.1 23.65 -7.8Q23.65 -5.55 22.3 -3.55Q21 -1.55 18.5 -0.45Q16.05 0.6 12.95 0.6Q7.75 0.6 5.05 -1.55Q2.35 -3.7 1.6 -7.95" />
</g>
<g id="PathID_214" transform="matrix(0.436198, 0, 0, 0.436198, 1331.7, 585.55)" opacity="1">
</g>
<g id="PathID_215" transform="matrix(0.436198, 0, 0, 0.436198, 1342.85, 585.55)" opacity="1">
<path style="fill:#000000;fill-opacity:1" d="M1.6 -7.95L6.05 -8.65Q6.4 -5.95 8.1 -4.5Q9.8 -3.1 12.9 -3.1Q16 -3.1 17.5 -4.35Q19 -5.6 19 -7.3Q19 -8.85 17.65 -9.7Q16.75 -10.3 13.1 -11.25Q8.15 -12.5 6.2 -13.4Q4.3 -14.3 3.3 -15.9Q2.35 -17.55 2.35 -19.5Q2.35 -21.25 3.15 -22.75Q3.95 -24.3 5.35 -25.3Q6.4 -26.05 8.2 -26.6Q10.05 -27.15 12.1 -27.15Q15.25 -27.15 17.6 -26.25Q19.95 -25.35 21.05 -23.8Q22.2 -22.25 22.65 -19.7L18.25 -19.1Q17.95 -21.15 16.5 -22.3Q15.05 -23.45 12.45 -23.45Q9.35 -23.45 8 -22.4Q6.7 -21.4 6.7 -20Q6.7 -19.15 7.25 -18.45Q7.8 -17.7 8.95 -17.25L12.95 -16.1Q17.7 -14.8 19.6 -14Q21.5 -13.2 22.55 -11.65Q23.65 -10.1 23.65 -7.8Q23.65 -5.55 22.3 -3.55Q21 -1.55 18.5 -0.45Q16.05 0.6 12.95 0.6Q7.75 0.6 5.05 -1.55Q2.35 -3.7 1.6 -7.95" />
</g>
<g id="PathID_216" transform="matrix(0.436198, 0, 0, 0.436198, 1342.85, 585.55)" opacity="1">
</g>
<g id="PathID_217" transform="matrix(0.436198, 0, 0, 0.436198, 1354, 585.55)" opacity="1">
<path style="fill:#000000;fill-opacity:1" d="M8.2 0L0.1 -26.55L4.8 -26.55L9 -11.2L10.55 -5.5L11.95 -11L16.15 -26.55L20.75 -26.55L24.8 -11.15L26.1 -6.05L27.65 -11.15L32.2 -26.55L36.6 -26.55L28.2 0L23.6 0L19.35 -15.9L18.3 -20.4L12.9 0L8.2 0" />
</g>
<g id="PathID_218" transform="matrix(0.436198, 0, 0, 0.436198, 1354, 585.55)" opacity="1">
</g>
<g id="PathID_219" transform="matrix(0.436198, 0, 0, 0.436198, 1370.1, 585.55)" opacity="1">
<path style="fill:#000000;fill-opacity:1" d="M1.7 -13.25Q1.7 -20.65 5.8 -24.2Q9.2 -27.15 14.15 -27.15Q19.6 -27.15 23.1 -23.55Q26.6 -19.95 26.6 -13.65Q26.6 -8.5 25.05 -5.55Q23.5 -2.65 20.55 -1Q17.6 0.6 14.15 0.6Q8.55 0.6 5.1 -2.95Q1.7 -6.55 1.7 -13.25M6.35 -13.25Q6.35 -8.15 8.55 -5.6Q10.75 -3.1 14.15 -3.1Q17.5 -3.1 19.7 -5.6Q21.95 -8.15 21.95 -13.4Q21.95 -18.3 19.7 -20.85Q17.45 -23.4 14.15 -23.4Q10.75 -23.4 8.55 -20.85Q6.35 -18.35 6.35 -13.25" />
</g>
<g id="PathID_220" transform="matrix(0.436198, 0, 0, 0.436198, 1370.1, 585.55)" opacity="1">
</g>
<g id="PathID_221" transform="matrix(0.436198, 0, 0, 0.436198, 1382.55, 585.55)" opacity="1">
<path style="fill:#000000;fill-opacity:1" d="M3.35 0L3.35 -26.55L7.4 -26.55L7.4 -22.5Q8.9 -25.35 10.2 -26.25Q11.55 -27.15 13.1 -27.15Q15.4 -27.15 17.75 -25.7L16.15 -21.5Q14.55 -22.5 12.9 -22.5Q11.4 -22.5 10.2 -21.6Q9.05 -20.7 8.55 -19.15Q7.85 -16.75 7.85 -13.9L7.85 0L3.35 0" />
</g>
<g id="PathID_222" transform="matrix(0.436198, 0, 0, 0.436198, 1382.55, 585.55)" opacity="1">
</g>
<g id="PathID_223" transform="matrix(0.436198, 0, 0, 0.436198, 1389.95, 585.55)" opacity="1">
<path style="fill:#000000;fill-opacity:1" d="M20.55 0L20.55 -3.35Q18 0.6 13.1 0.6Q9.95 0.6 7.25 -1.15Q4.6 -2.9 3.15 -6Q1.7 -9.15 1.7 -13.25Q1.7 -17.2 3 -20.45Q4.35 -23.7 7 -25.4Q9.65 -27.15 12.9 -27.15Q15.3 -27.15 17.15 -26.1Q19.05 -25.1 20.25 -23.45L20.25 -36.65L24.75 -36.65L24.75 0L20.55 0M6.35 -13.2Q6.35 -8.1 8.5 -5.6Q10.65 -3.1 13.6 -3.1Q16.55 -3.1 18.6 -5.5Q20.7 -7.9 20.7 -12.85Q20.7 -18.3 18.55 -20.85Q16.45 -23.4 13.35 -23.4Q10.35 -23.4 8.35 -20.95Q6.35 -18.5 6.35 -13.2" />
</g>
<g id="PathID_224" transform="matrix(0.436198, 0, 0, 0.436198, 1389.95, 585.55)" opacity="1">
</g>
<g id="PathID_225" transform="matrix(0.436198, 0, 0, 0.436198, 1304.15, 631.5)" opacity="1">
<path style="fill:#000000;fill-opacity:1" d="M3.4 10.2L3.4 -26.55L7.5 -26.55L7.5 -23.05Q8.95 -25.1 10.75 -26.1Q12.6 -27.15 15.2 -27.15Q18.6 -27.15 21.2 -25.4Q23.8 -23.65 25.1 -20.45Q26.45 -17.25 26.45 -13.45Q26.45 -9.4 24.95 -6.1Q23.5 -2.85 20.7 -1.1Q17.95 0.6 14.85 0.6Q12.6 0.6 10.8 -0.35Q9.05 -1.3 7.9 -2.75L7.9 10.2L3.4 10.2M7.45 -13.1Q7.45 -7.95 9.5 -5.5Q11.55 -3.1 14.5 -3.1Q17.5 -3.1 19.65 -5.6Q21.8 -8.15 21.8 -13.45Q21.8 -18.55 19.7 -21.05Q17.6 -23.6 14.7 -23.6Q11.85 -23.6 9.65 -20.9Q7.45 -18.2 7.45 -13.1" />
</g>
<g id="PathID_226" transform="matrix(0.436198, 0, 0, 0.436198, 1304.15, 631.5)" opacity="1">
</g>
<g id="PathID_227" transform="matrix(0.436198, 0, 0, 0.436198, 1316.55, 631.5)" opacity="1">
<path style="fill:#000000;fill-opacity:1" d="M20.7 -3.35Q18.2 -1.15 15.85 -0.25Q13.55 0.6 10.9 0.6Q6.55 0.6 4.2 -1.5Q1.85 -3.65 1.85 -7Q1.85 -8.95 2.7 -10.55Q3.6 -12.15 5.05 -13.1Q6.5 -14.1 8.3 -14.6Q9.6 -14.95 12.3 -15.3Q17.75 -15.95 20.3 -16.85L20.35 -18Q20.35 -20.75 19.05 -21.85Q17.35 -23.4 13.95 -23.4Q10.75 -23.4 9.25 -22.25Q7.75 -21.15 7.05 -18.35L2.65 -18.95Q3.25 -21.75 4.6 -23.5Q6 -25.25 8.6 -26.2Q11.2 -27.15 14.6 -27.15Q18 -27.15 20.1 -26.3Q22.25 -25.5 23.25 -24.3Q24.25 -23.1 24.65 -21.25Q24.9 -20.1 24.9 -17.1L24.9 -11.1Q24.9 -4.85 25.15 -3.15Q25.45 -1.5 26.3 0L21.6 0Q20.9 -1.4 20.7 -3.35M20.3 -13.3Q17.85 -12.3 12.95 -11.6Q10.15 -11.2 9 -10.7Q7.85 -10.2 7.25 -9.2Q6.65 -8.25 6.65 -7.1Q6.65 -5.3 8 -4.1Q9.35 -2.95 12 -2.95Q14.6 -2.95 16.6 -4.05Q18.65 -5.2 19.6 -7.15Q20.3 -8.65 20.3 -11.65L20.3 -13.3" />
</g>
<g id="PathID_228" transform="matrix(0.436198, 0, 0, 0.436198, 1316.55, 631.5)" opacity="1">
</g>
<g id="PathID_229" transform="matrix(0.436198, 0, 0, 0.436198, 1329, 631.5)" opacity="1">
<path style="fill:#000000;fill-opacity:1" d="M1.6 -7.95L6.05 -8.65Q6.4 -5.95 8.1 -4.5Q9.8 -3.1 12.9 -3.1Q16 -3.1 17.5 -4.35Q19 -5.6 19 -7.3Q19 -8.85 17.65 -9.7Q16.75 -10.3 13.1 -11.25Q8.15 -12.5 6.2 -13.4Q4.3 -14.3 3.3 -15.9Q2.35 -17.55 2.35 -19.5Q2.35 -21.25 3.15 -22.75Q3.95 -24.3 5.35 -25.3Q6.4 -26.05 8.2 -26.6Q10.05 -27.15 12.1 -27.15Q15.25 -27.15 17.6 -26.25Q19.95 -25.35 21.05 -23.8Q22.2 -22.25 22.65 -19.7L18.25 -19.1Q17.95 -21.15 16.5 -22.3Q15.05 -23.45 12.45 -23.45Q9.35 -23.45 8 -22.4Q6.7 -21.4 6.7 -20Q6.7 -19.15 7.25 -18.45Q7.8 -17.7 8.95 -17.25L12.95 -16.1Q17.7 -14.8 19.6 -14Q21.5 -13.2 22.55 -11.65Q23.65 -10.1 23.65 -7.8Q23.65 -5.55 22.3 -3.55Q21 -1.55 18.5 -0.45Q16.05 0.6 12.95 0.6Q7.75 0.6 5.05 -1.55Q2.35 -3.7 1.6 -7.95" />
</g>
<g id="PathID_230" transform="matrix(0.436198, 0, 0, 0.436198, 1329, 631.5)" opacity="1">
</g>
<g id="PathID_231" transform="matrix(0.436198, 0, 0, 0.436198, 1340.15, 631.5)" opacity="1">
<path style="fill:#000000;fill-opacity:1" d="M1.6 -7.95L6.05 -8.65Q6.4 -5.95 8.1 -4.5Q9.8 -3.1 12.9 -3.1Q16 -3.1 17.5 -4.35Q19 -5.6 19 -7.3Q19 -8.85 17.65 -9.7Q16.75 -10.3 13.1 -11.25Q8.15 -12.5 6.2 -13.4Q4.3 -14.3 3.3 -15.9Q2.35 -17.55 2.35 -19.5Q2.35 -21.25 3.15 -22.75Q3.95 -24.3 5.35 -25.3Q6.4 -26.05 8.2 -26.6Q10.05 -27.15 12.1 -27.15Q15.25 -27.15 17.6 -26.25Q19.95 -25.35 21.05 -23.8Q22.2 -22.25 22.65 -19.7L18.25 -19.1Q17.95 -21.15 16.5 -22.3Q15.05 -23.45 12.45 -23.45Q9.35 -23.45 8 -22.4Q6.7 -21.4 6.7 -20Q6.7 -19.15 7.25 -18.45Q7.8 -17.7 8.95 -17.25L12.95 -16.1Q17.7 -14.8 19.6 -14Q21.5 -13.2 22.55 -11.65Q23.65 -10.1 23.65 -7.8Q23.65 -5.55 22.3 -3.55Q21 -1.55 18.5 -0.45Q16.05 0.6 12.95 0.6Q7.75 0.6 5.05 -1.55Q2.35 -3.7 1.6 -7.95" />
</g>
<g id="PathID_232" transform="matrix(0.436198, 0, 0, 0.436198, 1340.15, 631.5)" opacity="1">
</g>
<g id="PathID_233" transform="matrix(0.436198, 0, 0, 0.436198, 1351.3, 631.5)" opacity="1">
<path style="fill:#000000;fill-opacity:1" d="M8.2 0L0.1 -26.55L4.8 -26.55L9 -11.2L10.55 -5.5L11.95 -11L16.15 -26.55L20.75 -26.55L24.8 -11.15L26.1 -6.05L27.65 -11.15L32.2 -26.55L36.6 -26.55L28.2 0L23.6 0L19.35 -15.9L18.3 -20.4L12.9 0L8.2 0" />
</g>
<g id="PathID_234" transform="matrix(0.436198, 0, 0, 0.436198, 1351.3, 631.5)" opacity="1">
</g>
<g id="PathID_235" transform="matrix(0.436198, 0, 0, 0.436198, 1367.4, 631.5)" opacity="1">
<path style="fill:#000000;fill-opacity:1" d="M1.7 -13.25Q1.7 -20.65 5.8 -24.2Q9.2 -27.15 14.15 -27.15Q19.6 -27.15 23.1 -23.55Q26.6 -19.95 26.6 -13.65Q26.6 -8.5 25.05 -5.55Q23.5 -2.65 20.55 -1Q17.6 0.6 14.15 0.6Q8.55 0.6 5.1 -2.95Q1.7 -6.55 1.7 -13.25M6.35 -13.25Q6.35 -8.15 8.55 -5.6Q10.75 -3.1 14.15 -3.1Q17.5 -3.1 19.7 -5.6Q21.95 -8.15 21.95 -13.4Q21.95 -18.3 19.7 -20.85Q17.45 -23.4 14.15 -23.4Q10.75 -23.4 8.55 -20.85Q6.35 -18.35 6.35 -13.25" />
</g>
<g id="PathID_236" transform="matrix(0.436198, 0, 0, 0.436198, 1367.4, 631.5)" opacity="1">
</g>
<g id="PathID_237" transform="matrix(0.436198, 0, 0, 0.436198, 1379.85, 631.5)" opacity="1">
<path style="fill:#000000;fill-opacity:1" d="M3.35 0L3.35 -26.55L7.4 -26.55L7.4 -22.5Q8.9 -25.35 10.2 -26.25Q11.55 -27.15 13.1 -27.15Q15.4 -27.15 17.75 -25.7L16.15 -21.5Q14.55 -22.5 12.9 -22.5Q11.4 -22.5 10.2 -21.6Q9.05 -20.7 8.55 -19.15Q7.85 -16.75 7.85 -13.9L7.85 0L3.35 0" />
</g>
<g id="PathID_238" transform="matrix(0.436198, 0, 0, 0.436198, 1379.85, 631.5)" opacity="1">
</g>
<g id="PathID_239" transform="matrix(0.436198, 0, 0, 0.436198, 1387.25, 631.5)" opacity="1">
<path style="fill:#000000;fill-opacity:1" d="M20.55 0L20.55 -3.35Q18 0.6 13.1 0.6Q9.95 0.6 7.25 -1.15Q4.6 -2.9 3.15 -6Q1.7 -9.15 1.7 -13.25Q1.7 -17.2 3 -20.45Q4.35 -23.7 7 -25.4Q9.65 -27.15 12.9 -27.15Q15.3 -27.15 17.15 -26.1Q19.05 -25.1 20.25 -23.45L20.25 -36.65L24.75 -36.65L24.75 0L20.55 0M6.35 -13.2Q6.35 -8.1 8.5 -5.6Q10.65 -3.1 13.6 -3.1Q16.55 -3.1 18.6 -5.5Q20.7 -7.9 20.7 -12.85Q20.7 -18.3 18.55 -20.85Q16.45 -23.4 13.35 -23.4Q10.35 -23.4 8.35 -20.95Q6.35 -18.5 6.35 -13.2" />
</g>
<g id="PathID_240" transform="matrix(0.436198, 0, 0, 0.436198, 1387.25, 631.5)" opacity="1">
</g>
<g id="PathID_241" transform="matrix(1, 0, 0, 1, 1211.4, 647.45)" opacity="1">
<path style="fill:#8C00FF;fill-opacity:0.168627" d="M140.9 10Q140.9 14.1 138 17Q135.1 19.9 131 19.9L-131 19.9Q-135.1 19.9 -138 17Q-140.9 14.1 -140.9 10L-140.9 -10Q-140.9 -14.1 -138 -17Q-135.1 -19.9 -131 -19.9L131 -19.9Q135.1 -19.9 138 -17Q140.9 -14.1 140.9 -10L140.9 10" />
</g>
<g id="PathID_242" transform="matrix(1, 0, 0, 1, 1211.4, 647.45)" opacity="1">
<path style="fill:none;stroke-width:1;stroke-linecap:round;stroke-linejoin:round;stroke-miterlimit:3;stroke:#000000;stroke-opacity:1" d="M140.9 10Q140.9 14.1 138 17Q135.1 19.9 131 19.9L-131 19.9Q-135.1 19.9 -138 17Q-140.9 14.1 -140.9 10L-140.9 -10Q-140.9 -14.1 -138 -17Q-135.1 -19.9 -131 -19.9L131 -19.9Q135.1 -19.9 138 -17Q140.9 -14.1 140.9 -10L140.9 10z" />
</g>
<g id="PathID_243" transform="matrix(1, 0, 0, 1, 1430.3, 728.5)" opacity="1">
<path style="fill:#8C00FF;fill-opacity:0.168627" d="M140.9 10Q140.9 14.1 138 17Q135.1 19.9 131 19.9L-131 19.9Q-135.1 19.9 -138 17Q-140.9 14.1 -140.9 10L-140.9 -10Q-140.9 -14.1 -138 -17Q-135.1 -19.9 -131 -19.9L131 -19.9Q135.1 -19.9 138 -17Q140.9 -14.1 140.9 -10L140.9 10" />
</g>
<g id="PathID_244" transform="matrix(1, 0, 0, 1, 1430.3, 728.5)" opacity="1">
<path style="fill:none;stroke-width:1;stroke-linecap:round;stroke-linejoin:round;stroke-miterlimit:3;stroke:#000000;stroke-opacity:1" d="M140.9 10Q140.9 14.1 138 17Q135.1 19.9 131 19.9L-131 19.9Q-135.1 19.9 -138 17Q-140.9 14.1 -140.9 10L-140.9 -10Q-140.9 -14.1 -138 -17Q-135.1 -19.9 -131 -19.9L131 -19.9Q135.1 -19.9 138 -17Q140.9 -14.1 140.9 -10L140.9 10z" />
</g>
</svg>
